<?xml version="1.0" encoding="UTF-8"?>
<svg version="1.1" xmlns="http://www.w3.org/2000/svg" width="1024" height="1024">
<path d="M0 0 C337.92 0 675.84 0 1024 0 C1024 337.92 1024 675.84 1024 1024 C686.08 1024 348.16 1024 0 1024 C0 686.08 0 348.16 0 0 Z " fill="#F9F9F9" transform="translate(0,0)"/>
<path d="M0 0 C1.84429115 0.70975827 3.6886971 1.4192183 5.53320312 2.12841797 C6.49911377 2.50190369 7.46502441 2.8753894 8.46020508 3.26019287 C29.39379848 11.33702416 50.43957813 18.85358644 71.8359375 25.60546875 C72.54572754 25.830672 73.25551758 26.05587524 73.98681641 26.28790283 C125.80171902 42.70880216 178.83493256 54.40068703 232.4609375 63.04296875 C233.50066711 63.21100006 234.54039673 63.37903137 235.6116333 63.55215454 C246.6577555 65.32450719 257.66663765 66.99542331 268.83145142 67.81236267 C274.30669223 68.28386706 277.93224521 69.42982042 281.5859375 73.60546875 C284.10512614 77.63617058 283.97960551 81.42333854 283.96965027 86.00872803 C283.9730486 87.14970188 283.9730486 87.14970188 283.97651559 88.31372571 C283.98286261 90.87160066 283.98202568 93.42942271 283.98120117 95.98730469 C283.98419288 97.81919931 283.98759543 99.65109329 283.99137878 101.48298645 C284.00023791 106.47440387 284.00255815 111.46580414 284.00319457 116.45722866 C284.00390585 119.58807744 284.00604201 122.71892189 284.00869179 125.84976959 C284.01796283 136.81081924 284.02202589 147.77185672 284.02124023 158.73291016 C284.02064415 168.87922752 284.03109813 179.0254909 284.0469839 189.17179465 C284.06018653 197.92301291 284.06541863 206.67421387 284.06478482 215.42544198 C284.06453284 220.63268439 284.06721274 225.83987919 284.07796288 231.04711151 C284.17598069 282.18636403 280.50371248 331.52987031 264.8359375 380.60546875 C264.41658936 381.9193457 264.41658936 381.9193457 263.98876953 383.25976562 C246.39004886 437.54560335 213.26716723 488.44116143 169.8359375 525.60546875 C168.92328125 526.40726563 168.010625 527.2090625 167.0703125 528.03515625 C158.10208878 535.8498689 148.58157712 542.79584612 138.8359375 549.60546875 C137.90491211 550.26047363 137.90491211 550.26047363 136.95507812 550.92871094 C101.36261129 575.83553706 61.52258359 593.84934043 20.8359375 608.60546875 C19.51187563 609.08868833 18.18781975 609.57192428 16.86376953 610.05517578 C13.5578182 611.25849755 10.24599521 612.44421223 6.92913818 613.61712646 C5.07547509 614.27451401 3.22541939 614.94204583 1.37548828 615.60986328 C0.24224121 616.00415527 -0.89100586 616.39844727 -2.05859375 616.8046875 C-3.54129761 617.32808716 -3.54129761 617.32808716 -5.05395508 617.86206055 C-11.79290738 619.47287064 -17.00179129 618.66512555 -23.4765625 616.4375 C-24.49424461 616.09128853 -24.49424461 616.09128853 -25.53248596 615.73808289 C-27.74811694 614.9786367 -29.95620764 614.19971006 -32.1640625 613.41796875 C-32.92983612 613.15081055 -33.69560974 612.88365234 -34.48458862 612.60839844 C-92.68641428 592.29645297 -151.93201504 565.55175095 -197.46875 523.08984375 C-199.6123161 521.114035 -201.7828032 519.19788293 -203.98828125 517.29296875 C-214.65846019 507.98600666 -224.46832572 497.77246288 -233.1640625 486.60546875 C-234.11311241 485.44304298 -235.06513209 484.28303784 -236.01953125 483.125 C-242.98603227 474.63489012 -249.30560226 465.89363059 -255.1640625 456.60546875 C-255.53595703 456.01862305 -255.90785156 455.43177734 -256.29101562 454.82714844 C-281.30413274 415.05761567 -297.93499225 369.01886248 -305.1640625 322.60546875 C-305.2873291 321.82171875 -305.4105957 321.03796875 -305.53759766 320.23046875 C-310.04874249 291.03874486 -310.48034919 262.05409635 -310.46564507 232.58871365 C-310.46456235 228.28338017 -310.46948981 223.97806103 -310.4742505 219.67273068 C-310.4852569 209.52627526 -310.48582902 199.37985691 -310.47973633 189.23339844 C-310.47365903 178.78444642 -310.48612232 168.33562778 -310.5073064 157.88669848 C-310.52490647 148.87213371 -310.53092758 139.85761154 -310.52766865 130.84303021 C-310.5258583 125.47650066 -310.52847039 120.11006703 -310.54238319 114.74355316 C-310.55493626 109.71668743 -310.5530415 104.69003227 -310.53997231 99.66316986 C-310.53760416 97.82090179 -310.54034972 95.97861894 -310.54859543 94.1363678 C-310.55904107 91.62165211 -310.55098112 89.10764664 -310.5382843 86.59295654 C-310.54565859 85.86554284 -310.55303287 85.13812913 -310.56063062 84.38867259 C-310.49860527 78.54759518 -309.00303427 74.5600259 -305.00439453 70.31005859 C-301.3316756 68.10592213 -297.89743401 67.70430848 -293.71875 67.33203125 C-292.47462593 67.19893051 -292.47462593 67.19893051 -291.20536804 67.06314087 C-289.4183895 66.87247818 -287.63065669 66.68878136 -285.84231567 66.51135254 C-281.0553762 66.03170492 -276.27600701 65.48605321 -271.49609375 64.94140625 C-270.5292717 64.8319165 -269.56244965 64.72242676 -268.56632996 64.60961914 C-184.82321894 54.95974896 -101.9254621 29.94139942 -23.86161804 -1.14816284 C-14.31419291 -4.94505745 -9.29734222 -3.64127583 0 0 Z " fill="#145882" transform="translate(525.1640625,68.39453125)"/>
<path d="M0 0 C1.84429115 0.70975827 3.6886971 1.4192183 5.53320312 2.12841797 C6.49911377 2.50190369 7.46502441 2.8753894 8.46020508 3.26019287 C29.39379848 11.33702416 50.43957813 18.85358644 71.8359375 25.60546875 C72.54572754 25.830672 73.25551758 26.05587524 73.98681641 26.28790283 C125.80171902 42.70880216 178.83493256 54.40068703 232.4609375 63.04296875 C233.50066711 63.21100006 234.54039673 63.37903137 235.6116333 63.55215454 C246.6577555 65.32450719 257.66663765 66.99542331 268.83145142 67.81236267 C274.30669223 68.28386706 277.93224521 69.42982042 281.5859375 73.60546875 C284.10512614 77.63617058 283.97960551 81.42333854 283.96965027 86.00872803 C283.9730486 87.14970188 283.9730486 87.14970188 283.97651559 88.31372571 C283.98286261 90.87160066 283.98202568 93.42942271 283.98120117 95.98730469 C283.98419288 97.81919931 283.98759543 99.65109329 283.99137878 101.48298645 C284.00023791 106.47440387 284.00255815 111.46580414 284.00319457 116.45722866 C284.00390585 119.58807744 284.00604201 122.71892189 284.00869179 125.84976959 C284.01796283 136.81081924 284.02202589 147.77185672 284.02124023 158.73291016 C284.02064415 168.87922752 284.03109813 179.0254909 284.0469839 189.17179465 C284.06018653 197.92301291 284.06541863 206.67421387 284.06478482 215.42544198 C284.06453284 220.63268439 284.06721274 225.83987919 284.07796288 231.04711151 C284.17598069 282.18636403 280.50371248 331.52987031 264.8359375 380.60546875 C264.41658936 381.9193457 264.41658936 381.9193457 263.98876953 383.25976562 C246.39004886 437.54560335 213.26716723 488.44116143 169.8359375 525.60546875 C168.92328125 526.40726563 168.010625 527.2090625 167.0703125 528.03515625 C158.10208878 535.8498689 148.58157712 542.79584612 138.8359375 549.60546875 C137.90491211 550.26047363 137.90491211 550.26047363 136.95507812 550.92871094 C101.36261129 575.83553706 61.52258359 593.84934043 20.8359375 608.60546875 C19.51187563 609.08868833 18.18781975 609.57192428 16.86376953 610.05517578 C13.5578182 611.25849755 10.24599521 612.44421223 6.92913818 613.61712646 C5.07547509 614.27451401 3.22541939 614.94204583 1.37548828 615.60986328 C0.24224121 616.00415527 -0.89100586 616.39844727 -2.05859375 616.8046875 C-3.54129761 617.32808716 -3.54129761 617.32808716 -5.05395508 617.86206055 C-11.79290738 619.47287064 -17.00179129 618.66512555 -23.4765625 616.4375 C-24.49424461 616.09128853 -24.49424461 616.09128853 -25.53248596 615.73808289 C-27.74811694 614.9786367 -29.95620764 614.19971006 -32.1640625 613.41796875 C-32.92983612 613.15081055 -33.69560974 612.88365234 -34.48458862 612.60839844 C-92.68641428 592.29645297 -151.93201504 565.55175095 -197.46875 523.08984375 C-199.6123161 521.114035 -201.7828032 519.19788293 -203.98828125 517.29296875 C-214.65846019 507.98600666 -224.46832572 497.77246288 -233.1640625 486.60546875 C-234.11311241 485.44304298 -235.06513209 484.28303784 -236.01953125 483.125 C-242.98603227 474.63489012 -249.30560226 465.89363059 -255.1640625 456.60546875 C-255.53595703 456.01862305 -255.90785156 455.43177734 -256.29101562 454.82714844 C-281.30413274 415.05761567 -297.93499225 369.01886248 -305.1640625 322.60546875 C-305.2873291 321.82171875 -305.4105957 321.03796875 -305.53759766 320.23046875 C-310.04874249 291.03874486 -310.48034919 262.05409635 -310.46564507 232.58871365 C-310.46456235 228.28338017 -310.46948981 223.97806103 -310.4742505 219.67273068 C-310.4852569 209.52627526 -310.48582902 199.37985691 -310.47973633 189.23339844 C-310.47365903 178.78444642 -310.48612232 168.33562778 -310.5073064 157.88669848 C-310.52490647 148.87213371 -310.53092758 139.85761154 -310.52766865 130.84303021 C-310.5258583 125.47650066 -310.52847039 120.11006703 -310.54238319 114.74355316 C-310.55493626 109.71668743 -310.5530415 104.69003227 -310.53997231 99.66316986 C-310.53760416 97.82090179 -310.54034972 95.97861894 -310.54859543 94.1363678 C-310.55904107 91.62165211 -310.55098112 89.10764664 -310.5382843 86.59295654 C-310.54565859 85.86554284 -310.55303287 85.13812913 -310.56063062 84.38867259 C-310.49860527 78.54759518 -309.00303427 74.5600259 -305.00439453 70.31005859 C-301.3316756 68.10592213 -297.89743401 67.70430848 -293.71875 67.33203125 C-292.47462593 67.19893051 -292.47462593 67.19893051 -291.20536804 67.06314087 C-289.4183895 66.87247818 -287.63065669 66.68878136 -285.84231567 66.51135254 C-281.0553762 66.03170492 -276.27600701 65.48605321 -271.49609375 64.94140625 C-270.5292717 64.8319165 -269.56244965 64.72242676 -268.56632996 64.60961914 C-184.82321894 54.95974896 -101.9254621 29.94139942 -23.86161804 -1.14816284 C-14.31419291 -4.94505745 -9.29734222 -3.64127583 0 0 Z M-23.49609375 36.80078125 C-25.30074097 37.49977539 -25.30074097 37.49977539 -27.1418457 38.21289062 C-28.42009363 38.71872728 -29.69833239 39.22458708 -30.9765625 39.73046875 C-32.94012544 40.49467944 -34.9051128 41.25513627 -36.87028503 42.01519775 C-38.16628156 42.516531 -39.46186811 43.01892541 -40.7570343 43.5223999 C-47.01906633 45.9525132 -53.33598754 48.19281481 -59.68359375 50.38671875 C-62.86093064 51.49932157 -66.01184321 52.66312877 -69.16137695 53.85107422 C-81.17184725 58.37531574 -93.28367381 62.18861934 -105.6484375 65.61865234 C-109.04068788 66.57083818 -112.42657313 67.54276935 -115.81140137 68.52090454 C-134.29604851 73.86192585 -152.72878393 78.93804604 -171.57910156 82.84570312 C-175.57211292 83.69194743 -179.55127746 84.59097826 -183.53125 85.49609375 C-203.23678359 89.94728249 -222.98907363 93.55385291 -242.94979858 96.66511536 C-250.05707136 97.77430376 -257.15846271 98.90545312 -264.23828125 100.1796875 C-265.50631592 100.40615967 -266.77435059 100.63263184 -268.08081055 100.8659668 C-271.30871886 101.45249185 -271.30871886 101.45249185 -274.1640625 103.60546875 C-274.61861855 106.25878926 -274.61861855 106.25878926 -274.5382843 109.42565918 C-274.54529861 110.66663864 -274.55231293 111.9076181 -274.55953979 113.186203 C-274.55211 114.57010047 -274.54437878 115.95399635 -274.53637695 117.33789062 C-274.53880451 118.79039267 -274.54252348 120.24289304 -274.54743958 121.69538879 C-274.55688394 125.65825895 -274.54737937 129.62088343 -274.53410745 133.58373451 C-274.52276579 137.75988411 -274.52690432 141.93602203 -274.52885437 146.11218262 C-274.52973962 153.16060354 -274.51863495 160.20892878 -274.50024414 167.25732422 C-274.47933533 175.314906 -274.47550849 183.372345 -274.4818061 191.42994833 C-274.48759396 199.24454155 -274.48172897 207.05908625 -274.47063255 214.87367249 C-274.46608181 218.16139152 -274.4650703 221.44907991 -274.4672184 224.73680115 C-274.47813516 252.89618998 -274.09645034 281.26883437 -269.9140625 309.16796875 C-269.8083493 309.90209991 -269.70263611 310.63623108 -269.59371948 311.39260864 C-267.6242868 325.01959794 -264.78536218 338.31797616 -261.1640625 351.60546875 C-260.69763456 353.38924918 -260.2314835 355.17310202 -259.765625 356.95703125 C-252.24949576 385.06002179 -241.15957342 412.01871489 -224.203125 435.75 C-222.57632228 438.02814711 -220.97080776 440.31740969 -219.375 442.6171875 C-202.35946075 467.07139292 -182.21566229 489.86778099 -158.1640625 507.60546875 C-156.12236977 509.23043601 -154.08070344 510.85543642 -152.0390625 512.48046875 C-137.84419161 523.4708964 -122.25453797 532.58663248 -106.57617188 541.26806641 C-104.41589102 542.46584156 -102.26620079 543.68062752 -100.1171875 544.8984375 C-68.46669679 563.08260324 -68.46669679 563.08260324 -34.1640625 571.60546875 C-34.14073441 553.36900877 -34.12308377 535.13255264 -34.11225033 516.89608097 C-34.10708718 508.42916936 -34.10004412 499.962267 -34.08862305 491.49536133 C-34.07867678 484.11829781 -34.07220921 476.741241 -34.06997401 469.36417097 C-34.0686668 465.45564822 -34.06558033 461.54714463 -34.05833244 457.63862801 C-34.05157313 453.96400433 -34.04944535 450.28940782 -34.05095482 446.61477852 C-34.05054612 444.61467264 -34.04515046 442.61456977 -34.03964233 440.61447144 C-34.04170433 438.84543709 -34.04170433 438.84543709 -34.04380798 437.04066467 C-34.04288619 436.00917832 -34.0419644 434.97769197 -34.04101467 433.91494846 C-33.90404197 431.64266116 -33.90404197 431.64266116 -35.1640625 430.60546875 C-34.5040625 430.60546875 -33.8440625 430.60546875 -33.1640625 430.60546875 C-32.8340625 477.79546875 -32.5040625 524.98546875 -32.1640625 573.60546875 C-18.24052577 579.76557396 -18.24052577 579.76557396 -3.9921875 578.4609375 C-3.25983887 578.2019165 -2.52749023 577.94289551 -1.77294922 577.67602539 C-0.9945166 577.3846167 -0.21608398 577.09320801 0.5859375 576.79296875 C1.4301123 576.48673584 2.27428711 576.18050293 3.14404297 575.86499023 C6.04955985 574.79925308 8.94360487 573.70648032 11.8359375 572.60546875 C12.94807617 572.18233398 14.06021484 571.75919922 15.20605469 571.32324219 C28.89824321 566.08208616 42.50803883 560.69313888 55.81640625 554.53515625 C57.83688687 553.60503171 59.86651351 552.69777943 61.8984375 551.79296875 C74.31921752 546.19106404 86.0659087 539.44982111 97.8359375 532.60546875 C98.7228125 532.09435547 99.6096875 531.58324219 100.5234375 531.05664062 C117.68274027 521.14610958 133.49163904 510.30781558 147.8359375 496.60546875 C149.20322278 495.40909413 150.57745524 494.22057568 151.9609375 493.04296875 C160.0807658 485.92765529 166.97823095 478.50596232 173.08129883 469.60742188 C175.41341336 466.26427504 177.10774412 464.22379204 180.8359375 462.60546875 C219.77582584 423.74553911 237.63950912 359.15571644 244.46630859 306.41845703 C244.73171897 304.39860346 245.02120146 302.38185816 245.32617569 300.36759853 C246.1953394 293.95302094 246.50770793 287.4961804 246.88183594 281.03735352 C246.92625808 280.27290519 246.97068023 279.50845686 247.0164485 278.72084343 C248.00880934 261.21909506 248.13234632 243.74305948 248.10458851 226.21774745 C248.099396 221.88934923 248.10425281 217.56095791 248.10736084 213.2325592 C248.11095021 206.01171294 248.10632287 198.79090826 248.09667969 191.57006836 C248.08566745 183.22771811 248.08943178 174.88546467 248.1003325 166.54311651 C248.10938845 159.32119953 248.11070307 152.09931173 248.10545516 144.87739092 C248.10234352 140.58761119 248.10190673 136.29787727 248.10852814 132.00810051 C248.11428086 128.0063013 248.11034338 124.00462925 248.09873962 120.00284386 C248.09608773 118.53461672 248.09686712 117.06637892 248.10126495 115.59815598 C248.10669726 113.60169091 248.09869009 111.60520251 248.08990479 109.60874939 C248.08915073 108.49090529 248.08839668 107.3730612 248.08761978 106.22134304 C248.10049788 103.44593845 248.10049788 103.44593845 245.8359375 101.60546875 C243.84195307 101.0427233 243.84195307 101.0427233 241.50756836 100.72338867 C240.60646835 100.5793158 239.70536835 100.43524292 238.77696228 100.2868042 C237.79482254 100.13801819 236.8126828 99.98923218 235.80078125 99.8359375 C234.78363541 99.67482483 233.76648956 99.51371216 232.71852112 99.34771729 C230.53746993 99.00255029 228.35588225 98.66075982 226.17382812 98.32199097 C220.51503704 97.44161382 214.86103746 96.53162059 209.20703125 95.62109375 C208.10632294 95.44416489 207.00561462 95.26723602 205.87155151 95.08494568 C195.49688751 93.4077888 185.20168004 91.47432619 174.92675781 89.26367188 C172.00303233 88.64105229 169.07564906 88.03862895 166.14645386 87.44233704 C115.43379035 77.11116365 65.55031022 62.48510092 16.9453125 44.73242188 C11.30245075 42.68723894 5.63071634 40.72484467 -0.04077148 38.76074219 C-1.15174194 38.37450684 -1.15174194 38.37450684 -2.28515625 37.98046875 C-3.30778564 37.62662109 -3.30778564 37.62662109 -4.35107422 37.265625 C-5.86694692 36.71365627 -7.35109489 36.0755747 -8.82421875 35.41796875 C-14.10345771 33.58477726 -18.44808836 34.81667724 -23.49609375 36.80078125 Z " fill="#093F63" transform="translate(525.1640625,68.39453125)"/>
<path d="M0 0 C3.26702333 1.17758349 5.67234099 2.29930764 8.1640625 4.72265625 C8.72270996 5.25632812 9.28135742 5.79 9.85693359 6.33984375 C10.73212646 7.19255859 10.73212646 7.19255859 11.625 8.0625 C16.60476118 12.79697193 21.6526549 17.32373002 27.0234375 21.6171875 C29.31980632 23.455488 31.59057659 25.3142871 33.8515625 27.1953125 C45.9120935 38.39168503 45.9120935 38.39168503 60.5 44.3125 C64.71513217 42.73182544 68.4879571 40.67766454 72.3515625 38.375 C75.09412495 36.95113277 76.92983659 36.28055957 80 36 C82.60864258 37.06054688 82.60864258 37.06054688 85.39453125 38.71875 C86.42457275 39.3183252 87.45461426 39.91790039 88.51586914 40.53564453 C89.60375732 41.18388184 90.69164551 41.83211914 91.8125 42.5 C106.97421464 51.24190914 119.58569034 56.64642258 137 61 C137 107.2 137 153.4 137 201 C125.7375779 198.74751558 125.7375779 198.74751558 121.03125 196.8203125 C119.97921387 196.39258545 118.92717773 195.9648584 117.84326172 195.52416992 C116.73998535 195.06244385 115.63670898 194.60071777 114.5 194.125 C113.3258252 193.63813721 112.15165039 193.15127441 110.94189453 192.6496582 C74.17853151 177.26565768 38.71750693 158.6591127 8 133 C7.03964844 132.24074219 6.07929688 131.48148438 5.08984375 130.69921875 C-10.49946316 118.08696658 -26.0078606 103.16198964 -37.69287109 86.82519531 C-39.23863066 84.66679066 -40.81664281 82.53345908 -42.39453125 80.3984375 C-53.17614662 65.71140271 -53.17614662 65.71140271 -56 60 C-54.66524076 55.99572227 -52.14315158 55.03947546 -48.6875 53 C-41.27341893 48.43822115 -35.19819378 43.10363049 -29 37 C-28.45907715 36.48896729 -27.9181543 35.97793457 -27.36083984 35.45141602 C-22.49402509 30.76831908 -18.49568988 25.62081438 -14.5 20.1875 C-13.87480469 19.34896484 -13.24960937 18.51042969 -12.60546875 17.64648438 C-8.29405484 11.83991139 -4.11892056 5.94435126 0 0 Z " fill="#51C0DE" transform="translate(354,439)"/>
<path d="M0 0 C13.75101366 8.87667061 19.1608932 20.31490841 23.75 35.3125 C24.69230469 34.83167969 25.63460937 34.35085937 26.60546875 33.85546875 C35.56642504 29.45847777 44.4879367 30.99823911 53.66796875 34.0546875 C64.50961809 38.47928964 71.32504382 47.37775189 75.8046875 57.89453125 C79.31046255 66.86178232 78.34459014 75.58879988 75 84.49609375 C70.3932683 94.87563612 63.01760964 102.36658647 52.4375 106.75 C46.54289029 108.92272391 41.08272575 109.45515116 34.82421875 109.41015625 C33.70283257 109.40803383 33.70283257 109.40803383 32.55879211 109.40586853 C30.18498635 109.40029764 27.81127697 109.3877506 25.4375 109.375 C23.82226699 109.36998123 22.2070325 109.36541899 20.59179688 109.36132812 C16.64449445 109.35033775 12.69726353 109.33309332 8.75 109.3125 C8.47833008 109.8890332 8.20666016 110.46556641 7.92675781 111.05957031 C6.74455149 113.3229313 5.42250032 115.295162 3.921875 117.359375 C3.36886719 118.1225 2.81585937 118.885625 2.24609375 119.671875 C1.66988281 120.46078125 1.09367188 121.2496875 0.5 122.0625 C-0.06074219 122.8359375 -0.62148438 123.609375 -1.19921875 124.40625 C-4.83621604 129.41237098 -8.53631833 134.36092444 -12.25 139.3125 C-2.35 139.6425 7.55 139.9725 17.75 140.3125 C15.75007146 144.31235707 13.35167902 147.30221301 10.4375 150.625 C9.90987061 151.23311523 9.38224121 151.84123047 8.83862305 152.46777344 C7.71798181 153.75877853 6.59562225 155.04829378 5.47167969 156.33642578 C3.76911281 158.29056309 2.07471423 160.25146914 0.3828125 162.21484375 C-5.10841138 168.58224973 -10.64265395 174.90241693 -16.28515625 181.13671875 C-20.27330734 185.55302125 -24.17070218 190.04563241 -28.03515625 194.5703125 C-34.01535517 201.57194127 -40.04290752 208.50977744 -46.25 215.3125 C-47.25 213.3125 -47.25 213.3125 -46.31298828 210.48120117 C-45.82040527 209.28470947 -45.32782227 208.08821777 -44.8203125 206.85546875 C-44.42139549 205.87825615 -44.42139549 205.87825615 -44.01441956 204.88130188 C-43.14226419 202.75096655 -42.25888641 200.62549176 -41.375 198.5 C-40.77659348 197.04578108 -40.17869446 195.59135323 -39.58129883 194.13671875 C-34.91913952 182.81233546 -30.12395057 171.5473691 -25.25 160.3125 C-35.48 160.3125 -45.71 160.3125 -56.25 160.3125 C-55.12499417 153.56246504 -55.12499417 153.56246504 -53.43994141 150.14648438 C-53.06930573 149.38549438 -52.69867004 148.62450439 -52.31680298 147.8404541 C-51.91577362 147.03716675 -51.51474426 146.23387939 -51.1015625 145.40625 C-50.68836761 144.56332397 -50.27517273 143.72039795 -49.84945679 142.85192871 C-48.5319163 140.16846515 -47.20363506 137.49048487 -45.875 134.8125 C-44.98887279 133.01206829 -44.10344873 131.21129032 -43.21875 129.41015625 C-39.91877385 122.69946179 -36.59969602 115.99853068 -33.25 109.3125 C-33.99200653 109.32138245 -34.73401306 109.33026489 -35.49850464 109.3394165 C-42.52965145 109.41993839 -49.56063554 109.48065378 -56.5921154 109.51974869 C-60.20614345 109.54052442 -63.81978695 109.56865513 -67.43359375 109.61425781 C-70.92847537 109.65807814 -74.42298976 109.68171218 -77.91812515 109.69200897 C-79.88441341 109.70287481 -81.85055623 109.73404181 -83.81661987 109.76568604 C-94.63586537 109.76836422 -103.65114852 107.3476305 -111.8046875 99.890625 C-119.02845972 92.3434003 -120.84729831 83.27931885 -120.72485352 73.09619141 C-120.47792597 67.38744553 -119.27495762 63.11449543 -116.25 58.3125 C-115.91097656 57.70277344 -115.57195313 57.09304687 -115.22265625 56.46484375 C-110.3035101 48.49967828 -101.67048383 43.85975564 -93.01171875 40.95703125 C-88.7289082 39.95750686 -84.61587686 39.97156385 -80.25 40.3125 C-80.15525391 39.25675781 -80.15525391 39.25675781 -80.05859375 38.1796875 C-78.41005219 24.88723662 -72.36423629 13.04137887 -62.0078125 4.453125 C-43.70437623 -9.23059413 -20.08961862 -11.02778759 0 0 Z " fill="#F9F9F9" transform="translate(646.25,168.6875)"/>
<path d="M0 0 C6.07195245 0.54741464 11.23239268 1.90892012 16.9296875 4.03515625 C17.78205994 4.34576492 18.63443237 4.6563736 19.51263428 4.97639465 C22.303388 5.99634952 25.08926883 7.02891391 27.875 8.0625 C29.81805361 8.77724434 31.76125238 9.49159418 33.70458984 10.20556641 C39.8092733 12.45378199 45.90564411 14.72395891 52 17 C53.01570068 17.37900452 54.03140137 17.75800903 55.07788086 18.14849854 C61.00089867 20.36035852 66.91985037 22.58266628 72.83355713 24.81930542 C74.69154895 25.52197855 76.55006883 26.22325703 78.40911865 26.92312622 C80.99634003 27.89869941 83.58061698 28.88166597 86.1640625 29.8671875 C86.93280701 30.15608353 87.70155151 30.44497955 88.49359131 30.74263 C93.77033399 32.77033399 93.77033399 32.77033399 96 35 C95.67967055 40.8712892 93.72615505 46.00000096 91.6484375 51.45703125 C91.14275742 52.80978401 91.14275742 52.80978401 90.62686157 54.18986511 C89.54950841 57.06660484 88.46231186 59.93951168 87.375 62.8125 C86.66734435 64.69963577 85.96030778 66.5870038 85.25390625 68.47460938 C83.85906267 72.19863311 82.44873301 75.91627587 81.02832031 79.63061523 C79.70460993 83.10073005 78.43553261 86.58281819 77.21386719 90.09008789 C74.02744519 99.06888122 71.00476021 105.56990401 63.5 111.8125 C62.03968316 113.07564863 60.59102006 114.35243814 59.15625 115.64453125 C58.52525391 116.17409424 57.89425781 116.70365723 57.24414062 117.24926758 C55.72076461 118.99529397 55.72076461 118.99529397 56.21020508 121.58300781 C57.34409475 125.05302566 59.49381775 127.17491928 61.91796875 129.83984375 C63 132 63 132 62.29248047 134.625 C60.79416859 138.53747892 59.13348309 142.34615809 57.40234375 146.16015625 C57.05167847 146.93941971 56.70101318 147.71868317 56.33972168 148.52156067 C55.59278958 150.18113832 54.84466108 151.84017793 54.09542847 153.49871826 C52.16118872 157.78133906 50.23633069 162.06816384 48.3125 166.35546875 C47.93629013 167.1936615 47.56008026 168.03185425 47.17247009 168.89544678 C42.99667147 178.2145448 38.97904604 187.59498209 35 197 C23.12 197 11.24 197 -1 197 C-0.26282303 192.5769382 0.39268337 189.61101389 2.0625 185.625 C2.42472656 184.75101563 2.78695312 183.87703125 3.16015625 182.9765625 C3.43730469 182.32429687 3.71445312 181.67203125 4 181 C3.36191406 180.9071875 2.72382813 180.814375 2.06640625 180.71875 C-2.15156652 179.73007868 -6.04878075 178.11326246 -10.0625 176.5 C-11.65665568 175.86233773 -13.25168027 175.22684255 -14.84765625 174.59375 C-15.54898682 174.31208984 -16.25031738 174.03042969 -16.97290039 173.74023438 C-18.96389997 173.01318262 -20.93576682 172.47486918 -23 172 C-23.26683594 173.13566406 -23.53367187 174.27132812 -23.80859375 175.44140625 C-24.95958461 180.04232741 -26.46369634 184.47563189 -28.0625 188.9375 C-28.33126953 189.70384766 -28.60003906 190.47019531 -28.87695312 191.25976562 C-30.86938745 196.86938745 -30.86938745 196.86938745 -32 198 C-35.02977804 198.08871273 -38.03667022 198.1151935 -41.06640625 198.09765625 C-41.97502914 198.0962413 -42.88365204 198.09482635 -43.81980896 198.09336853 C-46.73407221 198.08775193 -49.64825981 198.07519665 -52.5625 198.0625 C-54.53320202 198.05748714 -56.50390524 198.05292386 -58.47460938 198.04882812 C-63.31643559 198.03777711 -68.15820495 198.02050138 -73 198 C-72.42624375 193.96410014 -71.54369716 190.40993393 -70.05859375 186.6171875 C-69.64843018 185.5562085 -69.2382666 184.49522949 -68.81567383 183.40209961 C-68.36087646 182.23815674 -67.9060791 181.07421387 -67.4375 179.875 C-66.42468808 177.25060549 -65.41850387 174.62370217 -64.4140625 171.99609375 C-64.14356583 171.28890701 -63.87306915 170.58172028 -63.59437561 169.85310364 C-60.06264422 160.58631024 -56.69139196 151.26084298 -53.3125 141.9375 C-52.97499725 141.0068573 -52.63749451 140.0762146 -52.2897644 139.11737061 C-50.55220739 134.32589904 -48.81597939 129.53394771 -47.08056641 124.74169922 C-44.05959201 116.40159344 -41.02614962 108.0660236 -37.99331665 99.73022461 C-36.33630082 95.17576012 -34.6798133 90.62110354 -33.0234375 86.06640625 C-32.69465103 85.16234039 -32.36586456 84.25827454 -32.02711487 83.32681274 C-29.61234622 76.68607931 -27.20034532 70.04434357 -24.7890625 63.40234375 C-21.76492192 55.07238462 -18.73602058 46.74417441 -15.7013092 38.4180603 C-14.00056458 33.75115288 -12.30487061 29.08247645 -10.61529541 24.41151428 C-9.47802992 21.27239288 -8.3322196 18.13641061 -7.1875 15 C-6.7970752 13.91452881 -6.40665039 12.82905762 -6.00439453 11.71069336 C-5.64587402 10.73366455 -5.28735352 9.75663574 -4.91796875 8.75 C-4.61656982 7.91984375 -4.3151709 7.0896875 -4.00463867 6.234375 C-2.93916443 3.86469813 -1.63158942 2.01343849 0 0 Z " fill="#F7F8F8" transform="translate(356,176)"/>
<path d="M0 0 C0.83113312 -0.01140015 1.66226624 -0.02280029 2.51858521 -0.0345459 C4.27877708 -0.0534525 6.03903985 -0.06651654 7.79931641 -0.07421875 C10.49116709 -0.09362997 13.17996086 -0.15564961 15.87109375 -0.21875 C17.58071101 -0.23181076 19.29035014 -0.24231144 21 -0.25 C22.20642654 -0.28704041 22.20642654 -0.28704041 23.43722534 -0.3248291 C25.72216797 -0.30664062 25.72216797 -0.30664062 29.6328125 0.40625 C33.0265793 4.16672064 34.6828909 8.55768303 36.5234375 13.2421875 C36.78468414 13.9009639 37.04593079 14.5597403 37.31509399 15.23847961 C38.17740189 17.41693584 39.0299732 19.59907157 39.8828125 21.78125 C40.49810375 23.33989863 41.11416952 24.8982417 41.73095703 26.45629883 C43.03534811 29.75281101 44.33654375 33.05055919 45.63574219 36.34912109 C48.56638081 43.78090721 51.54102294 51.19506844 54.51287842 58.61044312 C56.18493618 62.78381765 57.85402685 66.95837855 59.5234375 71.1328125 C60.20115779 72.82715407 60.87889227 74.52148997 61.55664062 76.21582031 C65.78108724 86.77693685 70.00553385 97.33805339 74.22998047 107.89916992 C74.54399811 108.68360977 74.85801575 109.46804962 75.18154907 110.27626038 C75.79243047 111.80466944 76.4016661 113.33373749 77.00912476 114.86351013 C78.45404364 118.49679382 79.92515514 122.11411597 81.45996094 125.71044922 C81.74616302 126.39211655 82.03236511 127.07378387 82.32723999 127.77610779 C83.1015823 129.61618628 83.88892874 131.45077727 84.67724609 133.28491211 C85.68102008 136.56371906 85.70792105 138.18934078 84.6328125 141.40625 C81.99148671 144.04757579 73.33828533 142.72763758 69.62304688 142.75634766 C68.04965428 142.7729131 66.47633713 142.80021155 64.90332031 142.83837891 C62.6382738 142.89307869 60.3749925 142.91500774 58.109375 142.9296875 C57.40616119 142.95235687 56.70294739 142.97502625 55.97842407 142.99838257 C53.98681641 142.98974609 53.98681641 142.98974609 50.6328125 142.40625 C48.79321289 140.18676758 48.79321289 140.18676758 47.6328125 137.40625 C47.10071167 136.18675659 47.10071167 136.18675659 46.55786133 134.94262695 C46.23841553 134.10175537 45.91896973 133.26088379 45.58984375 132.39453125 C45.23857422 131.47220703 44.88730469 130.54988281 44.52539062 129.59960938 C44.16896484 128.64892578 43.81253906 127.69824219 43.4453125 126.71875 C43.07728516 125.75646484 42.70925781 124.79417969 42.33007812 123.80273438 C39.6328125 116.67174455 39.6328125 116.67174455 39.6328125 114.40625 C21.1528125 114.73625 2.6728125 115.06625 -16.3671875 115.40625 C-19.6671875 123.98625 -22.9671875 132.56625 -26.3671875 141.40625 C-28.0953989 143.1344614 -30.30969124 142.53442712 -32.61302185 142.54519653 C-33.34529495 142.5431723 -34.07756805 142.54114807 -34.83203125 142.5390625 C-35.58053848 142.54001923 -36.32904572 142.54097595 -37.10023499 142.54196167 C-38.68653446 142.54264346 -40.27283671 142.54078922 -41.85913086 142.53662109 C-44.29091659 142.53128024 -46.72251699 142.5365622 -49.15429688 142.54296875 C-50.69270874 142.54230782 -52.23112049 142.54102635 -53.76953125 142.5390625 C-54.49978012 142.54108673 -55.23002899 142.54311096 -55.98240662 142.54519653 C-61.13727414 142.52120668 -61.13727414 142.52120668 -63.3671875 141.40625 C-62.94807984 133.59742155 -60.04384934 126.99760621 -57.07421875 119.84375 C-56.53112944 118.51460169 -55.98914421 117.18500179 -55.44819641 115.85498047 C-54.32101587 113.08498777 -53.18985927 110.31666887 -52.05621338 107.54931641 C-49.66448779 101.69767525 -47.33689138 95.82074945 -45.01062965 89.94285011 C-43.99347006 87.37334798 -42.97389087 84.80480857 -41.95439243 82.23623371 C-41.1797829 80.28449898 -40.40554146 78.33261856 -39.63137817 76.38070679 C-38.28798953 72.99390921 -36.94355878 69.60752627 -35.59887218 66.22124386 C-30.53692541 53.47318438 -25.48084659 40.72312691 -20.484375 27.94921875 C-19.77906888 26.14908222 -19.07374734 24.34895172 -18.3684082 22.54882812 C-17.10842142 19.33234424 -15.85528818 16.11330804 -14.60620117 12.89257812 C-14.05931846 11.49469915 -13.51221566 10.09690624 -12.96484375 8.69921875 C-12.27660522 6.92840942 -12.27660522 6.92840942 -11.57446289 5.12182617 C-9.04540484 -0.56689226 -5.59740511 0.05885766 0 0 Z " fill="#093E63" transform="translate(439.3671875,701.59375)"/>
<path d="M0 0 C0.91120605 0.00202423 1.82241211 0.00404846 2.76123047 0.00613403 C3.71562012 0.00438171 4.67000977 0.00262939 5.65332031 0.00082397 C8.82472524 -0.0035963 11.99607492 -0.00065593 15.16748047 0.00271606 C17.36083995 0.00204308 19.55419937 0.00107309 21.74755859 -0.00018311 C26.35108142 -0.00166032 30.95458489 0.00049523 35.55810547 0.00515747 C41.47352642 0.01085477 47.388902 0.00757589 53.30432129 0.00158501 C57.83545273 -0.00201998 62.36657332 -0.00088231 66.89770508 0.0017128 C69.07950852 0.00238224 71.26131293 0.00155305 73.44311523 -0.00076675 C76.48668036 -0.00329225 79.53017093 0.00054587 82.57373047 0.00613403 C83.48493652 0.0041098 84.39614258 0.00208557 85.33496094 0 C91.55321817 0.02126627 91.55321817 0.02126627 92.66748047 1.13552856 C92.76751336 3.2690603 92.79829094 5.40590398 92.80029297 7.54177856 C92.80158203 8.84244263 92.80287109 10.14310669 92.80419922 11.48318481 C92.80210449 12.16397095 92.80000977 12.84475708 92.79785156 13.5461731 C92.79250287 15.62681371 92.79779727 17.70723845 92.80419922 19.78787231 C92.80291016 21.08853638 92.80162109 22.38920044 92.80029297 23.72927856 C92.79916504 24.93261841 92.79803711 26.13595825 92.796875 27.37576294 C92.66748047 30.13552856 92.66748047 30.13552856 91.66748047 31.13552856 C89.67316317 31.22957998 87.67548504 31.25296106 85.67895508 31.24905396 C84.39770248 31.24897842 83.11644989 31.24890289 81.79637146 31.24882507 C80.38752199 31.24371766 78.97867291 31.23850165 77.56982422 31.23318481 C76.13635813 31.23132059 74.7028914 31.22989671 73.26942444 31.22889709 C69.4898809 31.22507229 65.71037557 31.21524233 61.93084717 31.20419312 C58.07678749 31.19397819 54.22272165 31.1893993 50.36865234 31.18435669 C42.80157559 31.17362002 35.23453824 31.15602353 27.66748047 31.13552856 C27.66748047 39.38552856 27.66748047 47.63552856 27.66748047 56.13552856 C31.61458984 56.11232544 35.56169922 56.08912231 39.62841797 56.06521606 C43.43765949 56.04963302 47.2468975 56.03748059 51.05615234 56.02566528 C53.71013978 56.01558767 56.36411606 56.00192543 59.01806641 55.98464966 C62.82571154 55.96047865 66.63321031 55.94906322 70.44091797 55.94021606 C72.2300209 55.92473221 72.2300209 55.92473221 74.05526733 55.90893555 C75.15625763 55.90878448 76.25724792 55.90863342 77.39160156 55.90847778 C78.85054337 55.90181595 78.85054337 55.90181595 80.33895874 55.89501953 C82.66748047 56.13552856 82.66748047 56.13552856 84.66748047 58.13552856 C84.92626953 60.71755981 84.92626953 60.71755981 84.93310547 63.94802856 C84.93697266 65.68439575 84.93697266 65.68439575 84.94091797 67.45584106 C84.93318359 68.67013794 84.92544922 69.88443481 84.91748047 71.13552856 C84.92908203 72.95697388 84.92908203 72.95697388 84.94091797 74.81521606 C84.93833984 75.97279419 84.93576172 77.13037231 84.93310547 78.32302856 C84.93084961 79.38908325 84.92859375 80.45513794 84.92626953 81.55349731 C84.66748047 84.13552856 84.66748047 84.13552856 82.66748047 86.13552856 C80.33895874 86.3760376 80.33895874 86.3760376 77.39160156 86.36257935 C76.29061127 86.36242828 75.18962097 86.36227722 74.05526733 86.36212158 C72.86253204 86.35179901 71.66979675 86.34147644 70.44091797 86.33084106 C69.22296539 86.32801117 68.00501282 86.32518127 66.75015259 86.32226562 C62.84749664 86.31104112 58.94506744 86.28593229 55.04248047 86.26052856 C52.40185878 86.25050171 49.7612335 86.24137535 47.12060547 86.23318481 C40.63607213 86.2127932 34.1520311 86.17364807 27.66748047 86.13552856 C27.66748047 94.38552856 27.66748047 102.63552856 27.66748047 111.13552856 C29.60099365 111.13029175 31.53450684 111.12505493 33.52661133 111.11965942 C39.90085749 111.10356202 46.27509885 111.09205639 52.6493597 111.08371639 C56.51568164 111.07848831 60.38198168 111.07139203 64.24829102 111.06008911 C67.97651448 111.04925757 71.70471681 111.04325116 75.43295479 111.04065132 C76.85837703 111.03879755 78.28379806 111.03517786 79.70921135 111.02979851 C81.69911455 111.02258464 83.68903881 111.02212048 85.67895508 111.02200317 C86.81368759 111.01978256 87.9484201 111.01756195 89.11753845 111.01527405 C91.66748047 111.13552856 91.66748047 111.13552856 92.66748047 112.13552856 C92.92163597 116.77568182 92.85270845 121.42674163 92.85498047 126.07302856 C92.86722656 127.38722778 92.87947266 128.701427 92.89208984 130.05545044 C92.89402344 131.30777466 92.89595703 132.56009888 92.89794922 133.85037231 C92.90205811 135.00658081 92.90616699 136.16278931 92.91040039 137.35403442 C92.66748047 140.13552856 92.66748047 140.13552856 90.66748047 142.13552856 C87.59907176 142.32924012 84.6212039 142.39764939 81.55200195 142.37844849 C80.1348288 142.38129601 80.1348288 142.38129601 78.68902588 142.38420105 C75.5554585 142.38791612 72.42212112 142.37719495 69.28857422 142.36599731 C67.11906461 142.36480591 64.94955448 142.36435227 62.78004456 142.36460876 C58.22955098 142.36304268 53.67913593 142.35474289 49.12866211 142.34133911 C43.28164525 142.32433901 37.43471472 142.32052498 31.58767605 142.32128429 C27.10715402 142.32101301 22.62665104 142.31553875 18.14613533 142.30828285 C15.98945319 142.30509006 13.83276889 142.30312736 11.67608452 142.30238914 C8.66854002 142.30023259 5.66108903 142.29150357 2.65356445 142.28079224 C1.75328018 142.28124542 0.85299591 142.28169861 -0.0745697 142.28216553 C-6.21804557 142.25000252 -6.21804557 142.25000252 -7.33251953 141.13552856 C-7.43111648 139.32823211 -7.45884076 137.51704558 -7.45950317 135.70706177 C-7.46373291 133.94019516 -7.46373291 133.94019516 -7.4680481 132.13763428 C-7.46602386 130.8336972 -7.46399963 129.52976013 -7.46191406 128.18630981 C-7.46326808 126.80849155 -7.46504802 125.43067365 -7.46722412 124.05285645 C-7.47179838 120.30089309 -7.47000893 116.54895711 -7.46684504 112.79699326 C-7.46432139 108.87899448 -7.46665898 104.96099813 -7.4682312 101.04299927 C-7.47005288 94.46218442 -7.46764662 87.88138078 -7.46289062 81.30056763 C-7.45744801 73.68147413 -7.45921066 66.0624074 -7.46471703 58.44331455 C-7.4692482 51.91339418 -7.46989869 45.38348188 -7.46727836 38.85356045 C-7.46571561 34.94841002 -7.46552178 31.04327219 -7.46881485 27.13812256 C-7.47169362 23.46758389 -7.46971778 19.79707986 -7.46392059 16.12654495 C-7.46195739 14.12883808 -7.46494686 12.13112829 -7.4680481 10.13342285 C-7.46522827 8.95551178 -7.46240845 7.77760071 -7.45950317 6.56399536 C-7.45912615 5.53380783 -7.45874912 4.5036203 -7.45836067 3.44221497 C-7.19998838 -1.29378677 -4.00427009 0.01369449 0 0 Z " fill="#093E63" transform="translate(673.33251953125,701.8644714355469)"/>
<path d="M0 0 C-0.55244676 3.70490406 -1.46816852 6.10312187 -3.65234375 9.13671875 C-4.44608398 10.24950195 -4.44608398 10.24950195 -5.25585938 11.38476562 C-5.81080078 12.14466797 -6.36574219 12.90457031 -6.9375 13.6875 C-7.76411133 14.84475586 -7.76411133 14.84475586 -8.60742188 16.02539062 C-12.65093653 21.65093653 -12.65093653 21.65093653 -15 24 C-21.43920368 23.87850559 -26.74909463 21.70303626 -32.65625 19.25390625 C-39.31786544 16.75580046 -45.45323795 15.63786744 -52.5625 15.625 C-53.27857422 15.60050781 -53.99464844 15.57601562 -54.73242188 15.55078125 C-60.25649985 15.5206225 -63.43367385 16.89373482 -68 20 C-70.20271333 22.56983221 -70.1247877 24.73756918 -69.9375 28 C-69.69142353 31.07295491 -69.15999969 31.85537248 -66.82226562 33.96850586 C-57.38177815 40.76386021 -44.45659424 42.96399526 -33.37304688 45.87304688 C-20.95202347 49.27183437 -7.66812916 54.15049443 -0.40625 65.48828125 C4.88902101 75.6324196 6.60596034 85.56178813 3.7421875 96.72265625 C-0.06980555 108.41945598 -7.57040347 117.83121766 -18.40234375 123.7578125 C-29.93197517 129.27123023 -41.45495602 131.38870367 -54.1875 131.3125 C-55.1878125 131.30686035 -56.188125 131.3012207 -57.21875 131.29541016 C-76.80609485 130.97796442 -96.35855408 125.18954061 -112 113 C-111.50457926 108.50126006 -109.96566369 106.43007767 -106.875 103.1875 C-106.06804687 102.32640625 -105.26109375 101.4653125 -104.4296875 100.578125 C-103.62789063 99.72734375 -102.82609375 98.8765625 -102 98 C-100.65905675 96.4858722 -99.32483957 94.96573818 -98 93.4375 C-95.09230769 90.09230769 -95.09230769 90.09230769 -94 89 C-88.59130823 89.10205079 -84.92618889 90.37838178 -80.125 92.875 C-71.07577295 97.5455688 -63.91944837 99.25968768 -53.75 99.375 C-52.88568359 99.38901855 -52.02136719 99.40303711 -51.13085938 99.41748047 C-45.1346552 99.37219543 -41.25400667 98.13193541 -36.1875 94.8125 C-34.18167891 91.7509836 -33.67986004 88.62825288 -34 85 C-39.35226258 76.87932574 -52.05101092 75.00896974 -60.875 72.5625 C-76.26638762 68.16512815 -93.7547351 63.14426526 -102.5078125 48.47265625 C-107.74282493 38.28681778 -109.30299777 26.09879636 -106.45361328 14.84130859 C-102.17410971 2.8867707 -93.71078557 -5.38727227 -82.41772461 -10.74414062 C-56.88344142 -22.04903362 -22.12953967 -16.91200593 0 0 Z " fill="#0A3E63" transform="translate(363,715)"/>
<path d="M0 0 C3.61362997 1.23227382 6.24278166 3.34658513 9.15234375 5.73828125 C10.0659668 6.47316772 10.0659668 6.47316772 10.99804688 7.22290039 C17.08987068 12.15568115 23.03320266 17.26251411 28.95166016 22.40087891 C30.73410155 23.9424365 32.52549434 25.47287695 34.3203125 27 C39.75625207 31.62752536 45.14514286 36.28173441 50.40234375 41.11328125 C53.85500071 44.28408867 57.37015341 47.30613156 61.02734375 50.23828125 C65.56977487 53.93805848 70.02806739 57.71686236 74.40234375 61.61328125 C75.02729736 62.14800049 75.65225098 62.68271973 76.29614258 63.23364258 C80.60687151 67.13859901 80.60687151 67.13859901 81.171875 71.2578125 C80.71484375 73.92578125 80.71484375 73.92578125 79.71484375 74.92578125 C78.30156428 75.0819868 76.88129785 75.17634298 75.4609375 75.2421875 C74.69193115 75.28029541 73.9229248 75.31840332 73.13061523 75.35766602 C71.65637085 75.42232056 71.65637085 75.42232056 70.15234375 75.48828125 C67.03796875 75.63265625 63.92359375 75.77703125 60.71484375 75.92578125 C61.04484375 87.80578125 61.37484375 99.68578125 61.71484375 111.92578125 C54.71484375 110.92578125 54.71484375 110.92578125 52.78515625 110.3828125 C43.0420936 108.23198546 32.46048393 109.23108392 23.71484375 113.92578125 C21.73484375 114.91578125 19.75484375 115.90578125 17.71484375 116.92578125 C17.05484375 104.38578125 16.39484375 91.84578125 15.71484375 78.92578125 C5.04297002 78.92578125 -5.62803287 79.36488002 -16.28515625 79.92578125 C-16.61515625 92.79578125 -16.94515625 105.66578125 -17.28515625 118.92578125 C-20.91515625 116.61578125 -24.54515625 114.30578125 -28.28515625 111.92578125 C-37.35921725 108.40958261 -46.04482874 107.31979978 -55.28515625 110.92578125 C-56.60515625 110.92578125 -57.92515625 110.92578125 -59.28515625 110.92578125 C-60.47904028 84.95562835 -60.47904028 84.95562835 -60.28515625 73.92578125 C-61.19265625 74.09078125 -62.10015625 74.25578125 -63.03515625 74.42578125 C-68.422981 75.21451436 -73.85428181 75.00604048 -79.28515625 74.92578125 C-80.03125 72.203125 -80.03125 72.203125 -80.28515625 68.92578125 C-78.6953125 66.6171875 -78.6953125 66.6171875 -76.34765625 64.48828125 C-75.08501953 63.32039063 -75.08501953 63.32039063 -73.796875 62.12890625 C-72.96800781 61.401875 -72.13914062 60.67484375 -71.28515625 59.92578125 C-70.67285156 59.384375 -70.06054688 58.84296875 -69.4296875 58.28515625 C-68.1967704 57.20737441 -66.95801791 56.13624697 -65.71484375 55.0703125 C-62.33971411 52.09129936 -59.06749263 49.00633137 -55.78515625 45.92578125 C-51.32849695 41.74691567 -46.86026166 37.60427359 -42.2265625 33.62109375 C-39.76805809 31.47423074 -37.37486725 29.26040993 -34.97265625 27.05078125 C-30.50092109 22.9727064 -25.90826794 19.10059039 -21.19921875 15.30078125 C-17.28598472 12.11144306 -13.44571691 8.83897451 -9.61181641 5.55493164 C-2.98163694 -0.09683949 -2.98163694 -0.09683949 0 0 Z " fill="#F8F9F9" transform="translate(613.28515625,405.07421875)"/>
<path d="M0 0 C0.94082932 0.00359528 1.88165863 0.00719055 2.85099792 0.01089478 C4.3288829 0.01067574 4.3288829 0.01067574 5.83662415 0.01045227 C9.11023623 0.01115185 12.3837922 0.01894632 15.65739441 0.02676392 C17.92040984 0.02862794 20.18342567 0.03005191 22.44644165 0.03105164 C28.41577764 0.03487807 34.38508948 0.04470942 40.35441589 0.05575562 C46.44043145 0.06596705 52.52645089 0.07054868 58.61247253 0.07559204 C70.56365505 0.08633157 82.5148196 0.10340949 94.46598816 0.12442017 C96.75429924 4.70104233 95.65101521 11.09939308 95.65348816 16.12442017 C95.66573425 17.43410767 95.67798035 18.74379517 95.69059753 20.09317017 C95.69253113 21.34098267 95.69446472 22.58879517 95.69645691 23.87442017 C95.7005658 25.02426392 95.70467468 26.17410767 95.70890808 27.35879517 C95.46598816 30.12442017 95.46598816 30.12442017 93.46598816 32.12442017 C90.75782776 32.3649292 90.75782776 32.3649292 87.2721405 32.35147095 C85.32034378 32.35124435 85.32034378 32.35124435 83.32911682 32.35101318 C81.90338489 32.34079909 80.47765451 32.33036709 79.05192566 32.31973267 C77.59747003 32.31600312 76.14301189 32.31315587 74.68855286 32.31115723 C70.8580076 32.30351617 67.0276137 32.28386374 63.1971283 32.26174927 C59.28937325 32.24130095 55.38159377 32.23215769 51.47380066 32.22207642 C43.80445279 32.20061817 36.13526095 32.16543232 28.46598816 32.12442017 C28.46598816 41.03442017 28.46598816 49.94442017 28.46598816 59.12442017 C34.49493347 59.08961548 34.49493347 59.08961548 40.64567566 59.05410767 C43.84607824 59.04125002 47.04647354 59.03040291 50.24688721 59.0209198 C53.62775333 59.01034881 57.00851955 58.99621754 60.389328 58.97354126 C64.26647134 58.94937132 68.14347093 58.93795506 72.02067566 58.92910767 C73.23528473 58.9187851 74.4498938 58.90846252 75.7013092 58.89782715 C76.82232025 58.89767609 77.9433313 58.89752502 79.09831238 58.89736938 C80.08870514 58.89292816 81.0790979 58.88848694 82.09950256 58.88391113 C84.46598816 59.12442017 84.46598816 59.12442017 86.46598816 61.12442017 C86.92644305 65.60699969 86.78998836 70.12094052 86.77848816 74.62442017 C86.79460144 75.88641235 86.81071472 77.14840454 86.82731628 78.44863892 C86.82796082 79.65133423 86.82860535 80.85402954 86.82926941 82.09317017 C86.83225037 83.20111938 86.83523132 84.3090686 86.83830261 85.45059204 C86.71543884 86.33295532 86.59257507 87.2153186 86.46598816 88.12442017 C83.09950891 90.36873967 82.0097617 90.36947176 78.07658386 90.35147095 C76.9756691 90.35131989 75.87475433 90.35116882 74.74047852 90.35101318 C72.95911751 90.33552933 72.95911751 90.33552933 71.14176941 90.31973267 C69.92523178 90.31690277 68.70869415 90.31407288 67.45529175 90.31115723 C63.56292457 90.29994619 59.670786 90.27483965 55.77848816 90.24942017 C53.14242377 90.23939157 50.50635578 90.23026551 47.87028503 90.22207642 C41.40210784 90.20000383 34.93406433 90.16651705 28.46598816 90.12442017 C28.47042938 90.74638275 28.47487061 91.36834534 28.47944641 92.00915527 C28.52359056 98.46503407 28.55381734 104.92087021 28.57585144 111.37686157 C28.5859277 113.78833761 28.59958897 116.19980138 28.61686707 118.61123657 C28.64104406 122.07139102 28.65245485 125.53138436 28.66130066 128.99160767 C28.67162323 130.07497406 28.6819458 131.15834045 28.69258118 132.27453613 C28.69280777 133.77586594 28.69280777 133.77586594 28.69303894 135.30752563 C28.69748016 136.19132904 28.70192139 137.07513245 28.70649719 137.98571777 C28.46598816 140.12442017 28.46598816 140.12442017 26.46598816 142.12442017 C23.33317566 142.38320923 23.33317566 142.38320923 19.34098816 142.39004517 C18.63828796 142.39195862 17.93558777 142.39387207 17.21159363 142.39584351 C15.72542462 142.39720492 14.23924371 142.39351149 12.75309753 142.38516235 C10.4748317 142.3744617 8.19735439 142.38505856 5.91911316 142.39785767 C4.47640308 142.39653606 3.03369349 142.39397365 1.59098816 142.39004517 C0.27356628 142.38778931 -1.04385559 142.38553345 -2.40119934 142.38320923 C-5.53401184 142.12442017 -5.53401184 142.12442017 -7.53401184 140.12442017 C-7.78290081 137.71030331 -7.78290081 137.71030331 -7.78125 134.61366272 C-7.78544449 133.44279114 -7.78963898 132.27191956 -7.79396057 131.06556702 C-7.78834106 129.77457596 -7.78272156 128.4835849 -7.77693176 127.1534729 C-7.77800425 125.78535878 -7.77994243 124.4172451 -7.78268433 123.0491333 C-7.78754074 119.32818421 -7.77986747 115.60735464 -7.76973128 111.88642001 C-7.76096521 107.99912569 -7.76270794 104.11183527 -7.76309204 100.22453308 C-7.76215484 93.69675692 -7.75346276 87.16902719 -7.73982239 80.64126587 C-7.7240897 73.08406482 -7.71882448 65.52691461 -7.71955794 57.96969837 C-7.72016736 50.71136481 -7.71507019 43.45304788 -7.70676613 36.19471931 C-7.70322706 33.10022922 -7.70140199 30.005745 -7.70087242 26.91125298 C-7.69987107 23.27106349 -7.69379157 19.63091703 -7.68370628 15.99074173 C-7.6793713 14.00974722 -7.67995449 12.02874388 -7.6806488 10.04774475 C-7.67638382 8.87969299 -7.67211884 7.71164124 -7.66772461 6.50819397 C-7.66604877 5.4866796 -7.66437292 4.46516523 -7.66264629 3.41269588 C-7.39359414 -1.37346747 -4.01636309 0.00648628 0 0 Z " fill="#0A3E62" transform="translate(549.5340118408203,701.8755798339844)"/>
<path d="M0 0 C0.804375 -0.00128906 1.60875 -0.00257813 2.4375 -0.00390625 C3.283125 -0.00003906 4.12875 0.00382813 5 0.0078125 C6.2684375 0.00201172 6.2684375 0.00201172 7.5625 -0.00390625 C8.366875 -0.00261719 9.17125 -0.00132812 10 0 C10.7425 0.00112793 11.485 0.00225586 12.25 0.00341797 C14 0.1328125 14 0.1328125 15 1.1328125 C15.15873955 3.34969244 15.25133837 5.57136548 15.31640625 7.79296875 C15.33718735 8.45743515 15.35796844 9.12190155 15.37937927 9.8065033 C15.44493658 11.93599793 15.50378785 14.06561918 15.5625 16.1953125 C15.60567939 17.63608097 15.64929349 19.07683649 15.69335938 20.51757812 C15.80062393 24.0558529 15.90187371 27.59427119 16 31.1328125 C16.61488281 30.71128906 17.22976563 30.28976562 17.86328125 29.85546875 C18.67152344 29.30761719 19.47976563 28.75976562 20.3125 28.1953125 C21.51326172 27.37740234 21.51326172 27.37740234 22.73828125 26.54296875 C29.06261578 22.59981717 37.71383451 23.24560622 44.79296875 24.7109375 C53.70114964 27.82667644 61.4635842 34.82465537 66.0390625 43.05078125 C71.37560663 54.61329352 71.20181464 65.29788057 67.140625 77.28125 C65.76000936 80.7327891 64.31893115 83.23414857 62 86.1328125 C61.46375 86.9578125 60.9275 87.7828125 60.375 88.6328125 C53.98808668 95.35587916 45.54263956 99.10718045 36.375 99.5703125 C28.03539578 99.44553039 20.47915092 96.34363906 14 91.1328125 C14.020625 91.9371875 14.04125 92.7415625 14.0625 93.5703125 C14 96.1328125 14 96.1328125 13 97.1328125 C10.15664952 97.23268225 7.34302837 97.27159131 4.5 97.2578125 C3.70207031 97.26167969 2.90414063 97.26554688 2.08203125 97.26953125 C-3.87339233 97.25942017 -3.87339233 97.25942017 -5 96.1328125 C-5.10059769 93.18571835 -5.1361505 90.26202109 -5.12939453 87.31445312 C-5.13114685 86.38932419 -5.13289917 85.46419525 -5.13470459 84.5110321 C-5.13912467 81.43702345 -5.13618457 78.3630718 -5.1328125 75.2890625 C-5.13348549 73.16296375 -5.13445548 71.03686508 -5.13571167 68.9107666 C-5.13718886 64.4484789 -5.13503342 59.98621117 -5.13037109 55.52392578 C-5.1246738 49.79010681 -5.12795269 44.05633465 -5.13394356 38.3225174 C-5.13754861 33.93035527 -5.13641084 29.53820433 -5.13381577 25.14604187 C-5.13314634 23.03122451 -5.13397545 20.91640616 -5.13629532 18.80158997 C-5.13882093 15.85142304 -5.13498254 12.90133304 -5.12939453 9.95117188 C-5.13141876 9.06801804 -5.13344299 8.1848642 -5.13552856 7.27494812 C-5.10989007 0.00776242 -5.10989007 0.00776242 0 0 Z " fill="#0B4166" transform="translate(508,861.8671875)"/>
<path d="M0 0 C3.46391842 1.65401992 6.75495697 3.58224691 10.05859375 5.53515625 C20.0005294 10.80216186 31.57661754 10.99811249 42.5546875 8.8515625 C47.77164047 7.18186042 52.46825347 4.82889672 57.30859375 2.28515625 C62.27361562 -0.31494731 65.51044415 -1.10501486 71.05859375 -0.46484375 C67.28761192 3.580654 63.34194712 6.57366012 58.68359375 9.53515625 C57.955354 10.00155518 57.22711426 10.4679541 56.47680664 10.94848633 C42.16526475 19.9921406 27.30469219 28.25999324 12.03955078 35.58154297 C9.95450011 36.58526591 7.87974536 37.6086062 5.8046875 38.6328125 C-47.18759911 64.53515625 -47.18759911 64.53515625 -60.94140625 64.53515625 C-60.94140625 45.06515625 -60.94140625 25.59515625 -60.94140625 5.53515625 C-58.46640625 6.03015625 -58.46640625 6.03015625 -55.94140625 6.53515625 C-43.47659078 7.50035214 -34.83851764 5.32032343 -23.54296875 -0.09375 C-16.18118455 -2.89633813 -7.33984984 -3.08062767 0 0 Z " fill="#51C1DF" transform="translate(580.94140625,581.46484375)"/>
<path d="M0 0 C1.18299683 0.0141394 1.18299683 0.0141394 2.38989258 0.02856445 C11.18601765 0.25582409 19.75523645 1.83392252 26.125 8.375 C32.79364885 17.30760123 34.43884937 25.81307046 34.390625 36.7109375 C34.39253845 37.67150055 34.3944519 38.6320636 34.39642334 39.62173462 C34.39777664 41.63698593 34.39414034 43.65224621 34.38574219 45.66748047 C34.37495961 48.76158934 34.3857026 51.85512691 34.3984375 54.94921875 C34.39711714 56.91145962 34.3945573 58.87370013 34.390625 60.8359375 C34.39467346 61.76296478 34.39872192 62.68999207 34.40289307 63.64511108 C34.39343658 64.92752182 34.39343658 64.92752182 34.38378906 66.23583984 C34.38219788 66.98892426 34.38060669 67.74200867 34.37896729 68.51791382 C34.125 70.375 34.125 70.375 32.125 72.375 C29.39802777 72.54670903 26.78593532 72.6074568 24.0625 72.5625 C23.31677734 72.56185547 22.57105469 72.56121094 21.80273438 72.56054688 C16.26528159 72.51528159 16.26528159 72.51528159 15.125 71.375 C15.08436168 69.70882885 15.082279 68.04111905 15.125 66.375 C14.568125 66.78492188 14.01125 67.19484375 13.4375 67.6171875 C4.87353414 73.66404177 -2.96189241 75.72871981 -13.38671875 73.9453125 C-21.23650042 71.99789346 -26.57896826 68.03430058 -30.875 61.1875 C-32.4526128 55.17285122 -33.24437983 48.93304674 -30.9609375 43 C-27.29044525 36.74832288 -22.24778426 32.46280491 -15.3918457 29.97924805 C-10.14136287 28.71870435 -4.74011628 29.07253322 0.625 29.1875 C2.43097656 29.20780273 2.43097656 29.20780273 4.2734375 29.22851562 C7.22442973 29.26364648 10.17447412 29.31284004 13.125 29.375 C11.49853323 23.73655505 11.49853323 23.73655505 7.83203125 19.40625 C2.68975537 17.44728776 -2.47545801 17.63810598 -7.875 18.375 C-10.27980574 19.49799891 -12.14657402 20.69840939 -14.19140625 22.37890625 C-15.875 23.375 -15.875 23.375 -17.8515625 23.26171875 C-20.42811675 22.132611 -21.81683443 20.72014544 -23.6875 18.625 C-24.62529297 17.61179687 -24.62529297 17.61179687 -25.58203125 16.578125 C-26.875 14.375 -26.875 14.375 -26.828125 11.8046875 C-25.65255021 8.80793536 -24.51986547 7.94964968 -21.8125 6.25 C-20.71228516 5.53457031 -20.71228516 5.53457031 -19.58984375 4.8046875 C-13.02251475 1.3462092 -7.43268622 -0.13777507 0 0 Z " fill="#0C4267" transform="translate(616.875,886.625)"/>
<path d="M0 0 C1.26360352 -0.0299707 1.26360352 -0.0299707 2.55273438 -0.06054688 C11.76430376 -0.0534556 18.67590588 3.34985421 25.33984375 9.58984375 C32.68122355 17.46393138 33.37504506 27.36255378 33.328125 37.65234375 C33.33003845 38.58929581 33.3319519 39.52624786 33.33392334 40.49159241 C33.33527478 42.45378898 33.33165176 44.41599481 33.32324219 46.37817383 C33.31244269 49.39098845 33.32321598 52.40321826 33.3359375 55.41601562 C33.33461738 57.32812632 33.33205804 59.24023665 33.328125 61.15234375 C33.33217346 62.0543602 33.33622192 62.95637665 33.34039307 63.88572693 C33.33093658 65.133265 33.33093658 65.133265 33.32128906 66.40600586 C33.31969788 67.13830917 33.31810669 67.87061249 33.31646729 68.62510681 C33.0625 70.4375 33.0625 70.4375 31.0625 72.4375 C28.31764407 72.58257695 25.67769457 72.62402423 22.9375 72.5625 C22.18339844 72.55347656 21.42929687 72.54445313 20.65234375 72.53515625 C18.78892746 72.5115687 16.92567407 72.47569719 15.0625 72.4375 C14.4025 70.7875 13.7425 69.1375 13.0625 67.4375 C12.31806641 67.94410156 12.31806641 67.94410156 11.55859375 68.4609375 C3.76701761 73.57646946 -3.60643913 75.62375544 -12.9375 74.4375 C-20.19983108 72.37141558 -25.90107624 69.94786091 -29.9375 63.4375 C-32.86583826 58.08570939 -33.95217183 53.42796638 -32.9375 47.4375 C-30.55931605 40.14880661 -26.72952533 35.07301446 -19.9375 31.4375 C-15.68990612 29.79592878 -12.20880251 29.19719007 -7.6640625 29.2421875 C-5.93349609 29.25185547 -5.93349609 29.25185547 -4.16796875 29.26171875 C-2.97816406 29.27847656 -1.78835938 29.29523437 -0.5625 29.3125 C0.65050781 29.32152344 1.86351562 29.33054687 3.11328125 29.33984375 C6.09655773 29.36333412 9.07942594 29.39618318 12.0625 29.4375 C10.43603323 23.79905505 10.43603323 23.79905505 6.76953125 19.46875 C1.62768596 17.50995179 -3.5383613 17.69977004 -8.9375 18.4375 C-11.31293151 19.5627044 -13.14776334 20.7570163 -15.15625 22.44140625 C-16.9375 23.4375 -16.9375 23.4375 -19.41796875 23.375 C-22.64716236 22.17343959 -23.75441497 20.65316739 -25.75 17.875 C-26.35457031 17.04871094 -26.95914062 16.22242188 -27.58203125 15.37109375 C-28.02933594 14.73300781 -28.47664063 14.09492187 -28.9375 13.4375 C-27.51597414 9.97346593 -25.93014263 8.41178743 -22.8125 6.375 C-22.08804687 5.88902344 -21.36359375 5.40304687 -20.6171875 4.90234375 C-13.72988625 1.1374196 -7.83463983 -0.06563674 0 0 Z " fill="#0D4268" transform="translate(421.9375,886.5625)"/>
<path d="M0 0 C0.804375 -0.00128906 1.60875 -0.00257813 2.4375 -0.00390625 C3.283125 -0.00003906 4.12875 0.00382813 5 0.0078125 C6.2684375 0.00201172 6.2684375 0.00201172 7.5625 -0.00390625 C8.366875 -0.00261719 9.17125 -0.00132812 10 0 C10.7425 0.00112793 11.485 0.00225586 12.25 0.00341797 C14 0.1328125 14 0.1328125 15 1.1328125 C15.12263388 2.69729633 15.17779522 4.26714022 15.20532227 5.83618164 C15.22526749 6.83714371 15.24521271 7.83810577 15.26576233 8.86940002 C15.28247482 9.9579277 15.29918732 11.04645538 15.31640625 12.16796875 C15.33718735 13.27635605 15.35796844 14.38474335 15.37937927 15.52671814 C15.44499623 19.08285058 15.50381596 22.63905953 15.5625 26.1953125 C15.60567368 28.59961743 15.64928758 31.00391449 15.69335938 33.40820312 C15.80068992 39.31632435 15.90243331 45.22452241 16 51.1328125 C17.92515952 48.9372166 19.84324217 46.73604996 21.7578125 44.53125 C22.29768799 43.91693115 22.83756348 43.3026123 23.39379883 42.66967773 C26.6785228 38.87460823 29.35772967 35.09736527 31.875 30.7578125 C34.18625682 27.79610817 35.79609889 26.35121831 39.53271484 25.67333984 C46.0431397 25.19048061 52.50812058 25.52897566 59 26.1328125 C59 31.1486202 57.83069982 31.84296172 54.4375 35.3828125 C53.51503768 36.36012305 52.59316578 37.33799122 51.671875 38.31640625 C50.79015625 39.24582031 49.9084375 40.17523437 49 41.1328125 C44.89691987 45.71354127 40.91330513 50.38941234 37 55.1328125 C38.33018456 58.71641109 39.92627579 61.8239174 41.9765625 65.046875 C42.56171631 65.96807129 43.14687012 66.88926758 43.74975586 67.83837891 C44.36858643 68.80179199 44.98741699 69.76520508 45.625 70.7578125 C46.25220947 71.74313965 46.87941895 72.7284668 47.52563477 73.74365234 C51.38008228 79.7558147 55.34583545 85.55415324 59.83984375 91.109375 C61 93.1328125 61 93.1328125 60.57250977 95.25927734 C60.38358154 95.87754395 60.19465332 96.49581055 60 97.1328125 C42.68527575 99.66335118 42.68527575 99.66335118 36.92431641 95.70751953 C33.28913412 91.98856349 30.64950116 87.65163913 28.12353516 83.12939453 C26.65465846 80.51912212 24.96373876 78.08720157 23.25 75.6328125 C22.49474255 74.46954241 21.74208678 73.30452847 21 72.1328125 C18.33778489 73.45645656 18.33778489 73.45645656 16 76.1328125 C15.24206643 79.51709156 15.25486693 82.86236019 15.25 86.3203125 C15.21699159 88.14720101 15.18071454 89.97403441 15.140625 91.80078125 C15.13337402 93.01157349 15.13337402 93.01157349 15.12597656 94.24682617 C15 96.1328125 15 96.1328125 14 97.1328125 C12.66956375 97.2311846 11.33406656 97.26359842 10 97.265625 C9.195625 97.26691406 8.39125 97.26820313 7.5625 97.26953125 C6.716875 97.26566406 5.87125 97.26179687 5 97.2578125 C4.154375 97.26167969 3.30875 97.26554688 2.4375 97.26953125 C1.633125 97.26824219 0.82875 97.26695312 0 97.265625 C-0.7425 97.26449707 -1.485 97.26336914 -2.25 97.26220703 C-4 97.1328125 -4 97.1328125 -5 96.1328125 C-5.10059769 93.18571835 -5.1361505 90.26202109 -5.12939453 87.31445312 C-5.13114685 86.38932419 -5.13289917 85.46419525 -5.13470459 84.5110321 C-5.13912467 81.43702345 -5.13618457 78.3630718 -5.1328125 75.2890625 C-5.13348549 73.16296375 -5.13445548 71.03686508 -5.13571167 68.9107666 C-5.13718886 64.4484789 -5.13503342 59.98621117 -5.13037109 55.52392578 C-5.1246738 49.79010681 -5.12795269 44.05633465 -5.13394356 38.3225174 C-5.13754861 33.93035527 -5.13641084 29.53820433 -5.13381577 25.14604187 C-5.13314634 23.03122451 -5.13397545 20.91640616 -5.13629532 18.80158997 C-5.13882093 15.85142304 -5.13498254 12.90133304 -5.12939453 9.95117188 C-5.13141876 9.06801804 -5.13344299 8.1848642 -5.13552856 7.27494812 C-5.10989007 0.00776242 -5.10989007 0.00776242 0 0 Z " fill="#0A3F65" transform="translate(322,861.8671875)"/>
<path d="M0 0 C13.86 0 27.72 0 42 0 C40.49917377 3.00165246 39.11492053 5.37408267 37.171875 8.046875 C36.61886719 8.81 36.06585937 9.573125 35.49609375 10.359375 C34.63177734 11.54273438 34.63177734 11.54273438 33.75 12.75 C33.18925781 13.5234375 32.62851562 14.296875 32.05078125 15.09375 C28.41378396 20.09987098 24.71368167 25.04842444 21 30 C35.85 30.495 35.85 30.495 51 31 C49.00007146 34.99985707 46.60167902 37.98971301 43.6875 41.3125 C43.15987061 41.92061523 42.63224121 42.52873047 42.08862305 43.15527344 C40.96798181 44.44627853 39.84562225 45.73579378 38.72167969 47.02392578 C37.01911281 48.97806309 35.32471423 50.93896914 33.6328125 52.90234375 C28.14158862 59.26974973 22.60734605 65.58991693 16.96484375 71.82421875 C12.97669266 76.24052125 9.07929782 80.73313241 5.21484375 85.2578125 C-0.76535517 92.25944127 -6.79290752 99.19727744 -13 106 C-14 104 -14 104 -13.06298828 101.16870117 C-12.57040527 99.97220947 -12.07782227 98.77571777 -11.5703125 97.54296875 C-11.30436783 96.89149368 -11.03842316 96.24001862 -10.76441956 95.56880188 C-9.89226419 93.43846655 -9.00888641 91.31299176 -8.125 89.1875 C-7.52659348 87.73328108 -6.92869446 86.27885323 -6.33129883 84.82421875 C-1.66913952 73.49983546 3.12604943 62.2348691 8 51 C-2.23 51 -12.46 51 -23 51 C-21.87499417 44.24996504 -21.87499417 44.24996504 -20.18994141 40.83398438 C-19.81930573 40.07299438 -19.44867004 39.31200439 -19.06680298 38.5279541 C-18.66577362 37.72466675 -18.26474426 36.92137939 -17.8515625 36.09375 C-17.43836761 35.25082397 -17.02517273 34.40789795 -16.59945679 33.53942871 C-15.2819163 30.85596515 -13.95363506 28.17798487 -12.625 25.5 C-11.73887279 23.69956829 -10.85344873 21.89879032 -9.96875 20.09765625 C-6.66872859 13.38686977 -3.34439677 6.68879354 0 0 Z " fill="#F9C539" transform="translate(613,278)"/>
<path d="M0 0 C0.99515625 0.4434375 1.9903125 0.886875 3.015625 1.34375 C4.91274808 2.19795201 6.80416314 3.06503589 8.6875 3.94921875 C17.0205094 7.73567066 29.34086063 7.40679109 37.9375 4.3125 C39.64011914 3.57566328 41.32795937 2.80381614 43 2 C43.99128906 1.5565625 44.98257813 1.113125 46.00390625 0.65625 C47.90551829 -0.19662424 49.8009494 -1.06352712 51.6875 -1.94921875 C59.27733532 -5.39797838 68.81314538 -5.16277413 76.76953125 -2.953125 C79.90501059 -1.73476731 82.95106866 -0.41910768 86 1 C93.05657475 4.26984594 101.11794877 4.25185248 108.4765625 1.87890625 C110.52978197 0.99717088 112.5653628 0.07235371 114.57421875 -0.90625 C117 -2 117 -2 120 -2 C108.55539972 18.81486676 108.55539972 18.81486676 102 21 C92.61635325 22.10974266 85.61883109 20.1783592 77.21484375 16.41015625 C69.92227612 13.21135076 63.2756053 12.96290129 55.75 15.6875 C53.828014 16.44497274 51.91161276 17.2167173 50 18 C34.15731662 24.26599638 20.56585893 28.14289643 4.07226562 21.18701172 C0.7630873 19.70075347 -2.49821006 18.13062902 -5.75 16.5234375 C-12.7185435 13.25693274 -20.75027287 12.35284431 -28.20361328 14.69140625 C-30.55360501 15.58132033 -32.87240537 16.52296993 -35.1875 17.5 C-44.60653743 21.46271451 -51.18779392 22.368094 -60.9921875 18.94921875 C-61.65476562 18.63597656 -62.31734375 18.32273437 -63 18 C-63.73992188 17.6596875 -64.47984375 17.319375 -65.2421875 16.96875 C-68.15047858 13.71146399 -67.41864442 10.0059084 -67.25 5.8125 C-67.23195313 4.96751953 -67.21390625 4.12253906 -67.1953125 3.25195312 C-67.14820586 1.16748427 -67.07646233 -0.91640144 -67 -3 C-66.31292969 -2.65066406 -65.62585938 -2.30132813 -64.91796875 -1.94140625 C-64.01691406 -1.48636719 -63.11585938 -1.03132812 -62.1875 -0.5625 C-60.84751953 0.11619141 -60.84751953 0.11619141 -59.48046875 0.80859375 C-54.01597894 3.43326996 -48.59973707 4.04663323 -42.72949219 2.33984375 C-40.42162389 1.44127609 -38.14911165 0.48068692 -35.875 -0.5 C-23.29750353 -5.49175561 -12.50632586 -5.7721504 0 0 Z " fill="#51C1DF" transform="translate(587,526)"/>
<path d="M0 0 C1.04542969 0.60199219 2.09085938 1.20398438 3.16796875 1.82421875 C13.83109827 7.87361214 23.45184188 8.85193847 35.42578125 6.2578125 C38.3837326 5.32937641 41.16512238 4.25280711 44 3 C45.01320313 2.5565625 46.02640625 2.113125 47.0703125 1.65625 C48.96287476 0.80632648 50.84816749 -0.06014405 52.72265625 -0.94921875 C63.82941772 -6.07395089 76.50299353 -3.0883919 87.46118164 0.86547852 C89.31454582 1.55830378 91.15846832 2.27631036 93 3 C84.83548482 12.90016892 84.83548482 12.90016892 81 15 C77.91066332 15.23214669 75.03060455 14.57452219 72 14 C60.6064852 12.15144222 51.35658373 17.2059235 41.30493164 21.94677734 C29.92703177 27.14583042 18.66439993 27.54220076 6.8984375 23.21875 C3.21833719 21.67132237 -0.32913992 19.94281301 -3.84375 18.05078125 C-10.49163769 14.81114033 -19.86545102 14.44349376 -26.95703125 16.59326172 C-28.90907916 17.35310929 -30.83060956 18.16118564 -32.75 19 C-38.92718061 21.65777588 -44.33343467 22.57816721 -51.0625 22.5625 C-52.24054199 22.56540039 -52.24054199 22.56540039 -53.44238281 22.56835938 C-59.0334464 22.41032503 -61.32267496 21.4331393 -67 19 C-67 13.06 -67 7.12 -67 1 C-64.36 1.66 -61.72 2.32 -59 3 C-46.40477651 4.1662244 -37.02544009 2.05450539 -25.4609375 -3.140625 C-16.84083486 -6.15081957 -7.95447158 -3.73504958 0 0 Z " fill="#51C1DF" transform="translate(587,555)"/>
<path d="M0 0 C4.45286778 1.48428926 5.15020454 4.52485344 7.22265625 8.56640625 C7.72667969 9.57574219 8.23070312 10.58507812 8.75 11.625 C9.52923828 13.10419922 9.52923828 13.10419922 10.32421875 14.61328125 C11.05318359 16.06154297 11.05318359 16.06154297 11.796875 17.5390625 C12.24385742 18.41771973 12.69083984 19.29637695 13.15136719 20.20166016 C14.97770023 26.22393558 12.55091872 31.77920555 10.26953125 37.375 C9.99662766 38.06198975 9.72372406 38.74897949 9.44255066 39.45678711 C8.57302844 41.64079968 7.6930125 43.82039849 6.8125 46 C6.24083281 47.43070863 5.66986403 48.86169653 5.09960938 50.29296875 C4.53139952 51.71620554 3.96304057 53.13938281 3.39453125 54.5625 C3.11441193 55.2639917 2.8342926 55.9654834 2.54568481 56.68823242 C1.13747299 60.20316157 -0.29199565 63.70664518 -1.76416016 67.1953125 C-2.04375076 67.86747803 -2.32334137 68.53964355 -2.61140442 69.23217773 C-3.37600402 71.06798465 -4.15114146 72.89939255 -4.92700195 74.73046875 C-6.25245173 78.76924541 -6.71717372 82.02071256 -5.24975586 86.07055664 C-4.73747437 86.98115845 -4.73747437 86.98115845 -4.21484375 87.91015625 C-3.66666992 88.93012695 -3.66666992 88.93012695 -3.10742188 89.97070312 C-2.32487869 91.36987465 -1.54101518 92.76830852 -0.75585938 94.16601562 C0.81604805 97.09560592 1.96149109 99.28009735 2.140625 102.62890625 C0.40719233 106.23230909 -2.25642768 108.36643249 -5.3125 110.875 C-5.89451172 111.38546875 -6.47652344 111.8959375 -7.07617188 112.421875 C-11.38835387 116.03570815 -11.38835387 116.03570815 -14.07421875 115.87890625 C-16.63446981 114.71043467 -16.98428907 113.66097429 -18.01171875 111.0703125 C-18.34091309 110.25594727 -18.67010742 109.44158203 -19.00927734 108.60253906 C-19.33621582 107.74370117 -19.6631543 106.88486328 -20 106 C-20.32564941 105.17467773 -20.65129883 104.34935547 -20.98681641 103.49902344 C-21.96567949 100.96984222 -22.89398115 98.42665703 -23.8125 95.875 C-24.29879883 94.59302734 -24.29879883 94.59302734 -24.79492188 93.28515625 C-26.9220371 87.35474079 -27.82637926 82.92547789 -25.04516602 76.94775391 C-23.46962036 73.96035564 -21.7728892 71.052359 -20.0625 68.140625 C-17.67848455 64.00067506 -17.67848455 64.00067506 -16.97265625 59.37109375 C-18.34316084 56.20799 -20.10082871 53.5210252 -22.0625 50.6875 C-22.79597656 49.61886719 -23.52945312 48.55023438 -24.28515625 47.44921875 C-24.85105469 46.64097656 -25.41695313 45.83273437 -26 45 C-20.45075328 38.36797343 -20.45075328 38.36797343 -18.44726562 36.73242188 C-11.89615306 31.09541804 -9.54881258 23.49000058 -6.625 15.625 C-5.83030042 13.54089675 -5.03046017 11.45883718 -4.22909546 9.37728882 C-3.51215155 7.50690809 -2.80774405 5.63173627 -2.10400391 3.75634766 C-1 1 -1 1 0 0 Z " fill="#F7F8F8" transform="translate(448,253)"/>
<path d="M0 0 C6.57947831 4.48247763 11.38005724 10.03654307 13 18 C13.75143989 25.55775115 12.76706848 32.30473766 8.1484375 38.47265625 C4.27069274 42.90534328 0.12591644 46.77329509 -4.375 50.5625 C-9.01309743 54.5956282 -10.74010301 58.08007896 -12 64 C-14.97922593 64.02683987 -17.95821295 64.04676037 -20.9375 64.0625 C-22.21270508 64.07506836 -22.21270508 64.07506836 -23.51367188 64.08789062 C-24.32255859 64.09111328 -25.13144531 64.09433594 -25.96484375 64.09765625 C-26.7137085 64.10289307 -27.46257324 64.10812988 -28.23413086 64.11352539 C-30 64 -30 64 -31 63 C-31.84500266 56.38081248 -29.93980071 51.34146057 -26 46 C-23.16113271 43.23121724 -20.12070756 40.71710914 -16.98974609 38.28637695 C-12.04299188 34.38648777 -9.3567363 30.90485271 -8.5625 24.4375 C-9.07477355 20.4124935 -10.16236251 18.83763749 -13 16 C-16.20010654 14.39994673 -19.51948307 14.64319652 -23 15 C-26.73899871 16.51340424 -28.53459997 18.63926896 -30.9375 21.75 C-33.61430257 24.95807637 -33.61430257 24.95807637 -36.875 25.3125 C-41.12687274 23.52671345 -44.46737534 20.93189915 -48 18 C-47.8749414 11.99718721 -45.99829465 9.10913616 -41.88671875 4.7890625 C-30.60886161 -5.90505463 -13.57861169 -7.29340912 0 0 Z " fill="#0B4065" transform="translate(707,865)"/>
<path d="M0 0 C5.23869834 2.57172464 8.43710982 6.18679767 11.25 11.25 C13.25149861 18.58882825 12.15914177 24.20359693 8.4765625 30.828125 C5.90545427 34.60996674 3.27809272 36.40861213 -1.13671875 37.5546875 C-6.53046784 38.45211944 -10.22042171 37.88578312 -15 35 C-20.23335689 29.9910986 -22.1517674 26.13624648 -22.375 18.8125 C-22.31908995 12.53659652 -21.26977915 8.62180882 -17 4 C-11.97181489 -0.78874772 -6.6181406 -0.97644697 0 0 Z " fill="#F7F7F8" transform="translate(545,905)"/>
<path d="M0 0 C1.36916565 0.00539291 1.36916565 0.00539291 2.76599121 0.01089478 C3.72198715 0.01074875 4.67798309 0.01060272 5.66294861 0.01045227 C8.83916452 0.01115181 12.01532259 0.01894614 15.19152832 0.02676392 C17.387283 0.02862795 19.58303809 0.03005192 21.77879333 0.03105164 C27.5705784 0.03487798 33.36233857 0.04470926 39.15411377 0.05575562 C45.05915998 0.06596724 50.9642102 0.07054872 56.8692627 0.07559204 C68.46497679 0.08633142 80.06067236 0.10340923 91.65637207 0.12442017 C92.15137207 1.11442017 92.15137207 1.11442017 92.65637207 2.12442017 C91.99637207 2.12442017 91.33637207 2.12442017 90.65637207 2.12442017 C90.32637207 3.11442017 89.99637207 4.10442017 89.65637207 5.12442017 C89.65637207 4.13442017 89.65637207 3.14442017 89.65637207 2.12442017 C58.63637207 2.45442017 27.61637207 2.78442017 -4.34362793 3.12442017 C-4.67362793 48.00442017 -5.00362793 92.88442017 -5.34362793 139.12442017 C26.33637207 139.12442017 58.01637207 139.12442017 90.65637207 139.12442017 C90.65637207 130.87442017 90.65637207 122.62442017 90.65637207 114.12442017 C90.98637207 114.12442017 91.31637207 114.12442017 91.65637207 114.12442017 C91.68523546 118.60357345 91.70312394 123.08270308 91.71887207 127.56192017 C91.72725098 128.8413147 91.73562988 130.12070923 91.7442627 131.43887329 C91.74748535 132.6538147 91.75070801 133.8687561 91.75402832 135.12051392 C91.75926514 136.24642944 91.76450195 137.37234497 91.76989746 138.53237915 C91.65637207 141.12442017 91.65637207 141.12442017 90.65637207 142.12442017 C87.64823721 142.22504763 84.66302179 142.26056756 81.65441895 142.2538147 C80.70978287 142.25556702 79.76514679 142.25731934 78.79188538 142.25912476 C75.65294587 142.26354497 72.5140622 142.26060469 69.37512207 142.25723267 C67.20418283 142.25790566 65.03324367 142.25887564 62.86230469 142.26013184 C58.30586024 142.26160904 53.74943535 142.25945353 49.19299316 142.25479126 C43.33810621 142.24909396 37.48326509 142.25237285 31.62837982 142.25836372 C27.14357149 142.26196873 22.65877411 142.26083103 18.17396545 142.25823593 C16.01449071 142.25756649 13.85501498 142.25839566 11.69554138 142.26071548 C8.68310899 142.26324102 5.67075194 142.25940281 2.6583252 142.2538147 C1.30554222 142.25685104 1.30554222 142.25685104 -0.0745697 142.25994873 C-6.22936562 142.23868248 -6.22936562 142.23868248 -7.34362793 141.12442017 C-7.44222488 139.31712371 -7.46994916 137.50593718 -7.47061157 135.69595337 C-7.47484131 133.92908676 -7.47484131 133.92908676 -7.47915649 132.12652588 C-7.47713226 130.82258881 -7.47510803 129.51865173 -7.47302246 128.17520142 C-7.47437648 126.79738315 -7.47615642 125.41956526 -7.47833252 124.04174805 C-7.48290677 120.28978469 -7.48111733 116.53784871 -7.47795343 112.78588486 C-7.47542979 108.86788608 -7.47776738 104.94988973 -7.4793396 101.03189087 C-7.48116128 94.45107602 -7.47875502 87.87027238 -7.47399902 81.28945923 C-7.4685564 73.67036574 -7.47031906 66.051299 -7.47582543 58.43220615 C-7.48035659 51.90228578 -7.48100709 45.37237349 -7.47838676 38.84245205 C-7.476824 34.93730162 -7.47663018 31.03216379 -7.47992325 27.12701416 C-7.48280201 23.45647549 -7.48082618 19.78597147 -7.47502899 16.11543655 C-7.47306579 14.11772968 -7.47605526 12.12001989 -7.47915649 10.12231445 C-7.47633667 8.94440338 -7.47351685 7.76649231 -7.47061157 6.55288696 C-7.47023455 5.52269943 -7.46985752 4.4925119 -7.46946907 3.43110657 C-7.21076761 -1.31092884 -4.00601951 0.0066673 0 0 Z " fill="#14385B" transform="translate(673.3436279296875,701.8755798339844)"/>
<path d="M0 0 C2.04875904 2.04875904 2.60623202 3.19686321 3.60400391 5.85131836 C3.90416412 6.6423143 4.20432434 7.43331024 4.51358032 8.24827576 C4.83136444 9.10349319 5.14914856 9.95871063 5.4765625 10.83984375 C5.80667328 11.71774063 6.13678406 12.59563751 6.47689819 13.50013733 C7.17379921 15.35773203 7.86795169 17.21635984 8.55957031 19.07592773 C9.62047459 21.92534547 10.69239605 24.77043921 11.765625 27.61523438 C12.44076993 29.41902178 13.11527082 31.22305041 13.7890625 33.02734375 C14.11089508 33.88053696 14.43272766 34.73373016 14.76431274 35.61277771 C15.05816864 36.40692581 15.35202454 37.20107391 15.65478516 38.01928711 C15.91522614 38.71718857 16.17566711 39.41509003 16.44400024 40.13414001 C17 42 17 42 17 45 C6.11 45 -4.78 45 -16 45 C-14.59863434 38.69385453 -13.10311516 33.15821562 -10.7421875 27.24609375 C-10.2803154 26.06660912 -10.2803154 26.06660912 -9.80911255 24.86329651 C-8.83723998 22.38555358 -7.85630573 19.91151994 -6.875 17.4375 C-6.20902931 15.7443789 -5.5436592 14.05102145 -4.87890625 12.35742188 C-3.25952585 8.23551955 -1.63201611 4.11691481 0 0 Z " fill="#F3F5F6" transform="translate(450,743)"/>
<path d="M0 0 C8.02071473 1.94202345 15.45450713 4.66839495 23 8 C20.68860831 16.61703042 17.39204534 24.76688023 14 33 C8.5632024 32.44147333 4.0816633 31.06042383 -0.9375 28.9375 C-1.62134766 28.65583984 -2.30519531 28.37417969 -3.00976562 28.08398438 C-4.67613946 27.3964595 -6.33850727 26.69923825 -8 26 C-6.36231563 16.99273599 -3.13020303 8.57360642 0 0 Z " fill="#145580" transform="translate(403,219)"/>
<path d="M0 0 C7.60837466 2.07042054 14.7728592 4.85830477 22 8 C19.56541729 16.41217604 16.79856214 24.70386716 14 33 C8.86243532 32.35983027 4.41209819 30.80299667 -0.375 28.9375 C-1.11105469 28.65583984 -1.84710938 28.37417969 -2.60546875 28.08398438 C-4.4055736 27.39433382 -6.2030621 26.69786068 -8 26 C-6.36231563 16.99273599 -3.13020303 8.57360642 0 0 Z " fill="#145580" transform="translate(349,249)"/>
<path d="M0 0 C7.39393019 2.15928935 14.70417741 4.5304518 22 7 C19.56696874 15.87842985 16.29163506 24.41405225 13 33 C10.24883766 32.04490216 7.49907912 31.08606018 4.75 30.125 C3.97269531 29.85558594 3.19539063 29.58617187 2.39453125 29.30859375 C1.64042969 29.04433594 0.88632812 28.78007812 0.109375 28.5078125 C-0.58188477 28.26691895 -1.27314453 28.02602539 -1.98535156 27.77783203 C-4.06628076 26.97440978 -6.021622 26.02798072 -8 25 C-6.43889635 16.25781959 -3.21518143 8.24016625 0 0 Z " fill="#145580" transform="translate(365,205)"/>
<path d="M0 0 C7.48252838 1.37179687 14.05604954 3.92163279 21 7 C20.38593881 12.57833899 19.02679204 17.58075989 17.1875 22.875 C16.93935547 23.64585937 16.69121094 24.41671875 16.43554688 25.2109375 C15.66796875 27.4296875 15.66796875 27.4296875 14 31 C11.65169852 32.04080623 10.38560763 32.09684883 7.89355469 31.47094727 C7.16040039 31.17244873 6.42724609 30.8739502 5.671875 30.56640625 C4.47304688 30.0878418 4.47304688 30.0878418 3.25 29.59960938 C2.425 29.25736328 1.6 28.91511719 0.75 28.5625 C-0.09046875 28.22412109 -0.9309375 27.88574219 -1.796875 27.53710938 C-3.86882572 26.70126562 -5.93603615 25.85533351 -8 25 C-6.80215824 18.90278907 -5.14008134 13.21941815 -2.875 7.4375 C-2.45927734 6.3537207 -2.45927734 6.3537207 -2.03515625 5.24804688 C-1.36238815 3.49652992 -0.68201689 1.74793636 0 0 Z " fill="#13557F" transform="translate(371,309)"/>
<path d="M0 0 C7.1178153 2.03807293 14.06707281 4.40344742 21 7 C19.43889635 15.74218041 16.21518143 23.75983375 13 32 C5.27670981 30.56006454 -1.7282249 27.94467554 -9 25 C-7.69233076 21.01922912 -6.37806177 17.04066885 -5.0625 13.0625 C-4.50272461 11.35803711 -4.50272461 11.35803711 -3.93164062 9.61914062 C-3.57392578 8.53955078 -3.21621094 7.45996094 -2.84765625 6.34765625 C-2.51773682 5.34742432 -2.18781738 4.34719238 -1.84790039 3.31665039 C-1 1 -1 1 0 0 Z " fill="#145580" transform="translate(388,264)"/>
<path d="M0 0 C7.50931455 1.9172718 14.75803759 4.24049015 22 7 C19.85406445 15.54884894 17.0505873 23.74050475 14 32 C8.97525707 31.38169051 4.75279506 29.87023224 0.125 27.9375 C-0.56335938 27.65583984 -1.25171875 27.37417969 -1.9609375 27.08398438 C-3.64289909 26.39484734 -5.32177697 25.69819202 -7 25 C-6.38574623 19.2073537 -4.84466956 14.05390934 -2.9375 8.5625 C-2.65583984 7.73556641 -2.37417969 6.90863281 -2.08398438 6.05664062 C-1.39482208 4.03587662 -0.6981769 2.01766718 0 0 Z " fill="#145580" transform="translate(333,294)"/>
<path d="M0 0 C2.875 -0.125 2.875 -0.125 6 0 C6.66 0.66 7.32 1.32 8 2 C7.68454083 6.48789035 6.32515665 9.71953677 4.12109375 13.59765625 C3.53328125 14.64115234 2.94546875 15.68464844 2.33984375 16.75976562 C1.71207031 17.84966797 1.08429687 18.93957031 0.4375 20.0625 C-0.19929687 21.17689453 -0.83609375 22.29128906 -1.4921875 23.43945312 C-2.75339978 25.6395108 -4.01906501 27.8370228 -5.28955078 30.03173828 C-6.71621082 32.50752086 -8.11387189 34.99540593 -9.49609375 37.49609375 C-10.16252821 38.66493863 -10.83032038 39.83301137 -11.5 41 C-12.31984375 42.4540625 -12.31984375 42.4540625 -13.15625 43.9375 C-15 46 -15 46 -18.09375 46.9375 C-19.0528125 46.958125 -20.011875 46.97875 -21 47 C-23 45 -23 45 -23.03515625 42.09765625 C-22.00376481 36.28613333 -18.45913526 31.39878759 -15.4375 26.4375 C-14.16231934 24.30104445 -12.88757798 22.16432664 -11.61328125 20.02734375 C-10.99404785 18.99722168 -10.37481445 17.96709961 -9.73681641 16.90576172 C-7.48147465 13.13248683 -5.2919151 9.32454105 -3.125 5.5 C-2.50882813 4.4171875 -1.89265625 3.334375 -1.2578125 2.21875 C-0.63519531 1.12046875 -0.63519531 1.12046875 0 0 Z " fill="#F4F6F7" transform="translate(563,295)"/>
<path d="M0 0 C3.17781029 2.58197086 5.68987052 4.78478945 6.2734375 8.953125 C6.46154273 13.20719718 6.43570087 16.09982354 3.6875 19.5 C-0.01580137 22.94493151 -2.92569776 23.34971476 -7.93359375 23.28515625 C-12.05239225 22.71677763 -14.91553118 20.42952708 -17.375 17.1875 C-18.60440405 12.88458583 -18.62297139 9.30527338 -16.6875 5.25 C-11.99734327 -1.00354231 -7.52682052 -1.96753729 0 0 Z " fill="#0C3F65" transform="translate(692,938)"/>
<path d="M0 0 C2.625 0.375 2.625 0.375 5 1 C6.32399999 6.80873901 5.70812963 9.60652591 2.7734375 14.74609375 C2.4287442 15.36090103 2.0840509 15.97570831 1.72891235 16.60914612 C0.62813634 18.56229321 -0.49787962 20.49946167 -1.625 22.4375 C-2.35974487 23.73408 -3.0928337 25.03159992 -3.82421875 26.33007812 C-5.84781847 29.90780129 -7.91883073 33.45546301 -10 37 C-10.504104 37.88107422 -11.00820801 38.76214844 -11.52758789 39.66992188 C-12.60383125 41.49696201 -13.78939568 43.25907709 -15 45 C-18.1875 45.625 -18.1875 45.625 -21 45 C-21.66 44.34 -22.32 43.68 -23 43 C-22.6640828 38.7161174 -20.8135492 35.40541004 -18.796875 31.66796875 C-18.47720764 31.07252762 -18.15754028 30.47708649 -17.82818604 29.86360168 C-17.15203941 28.60719761 -16.47275438 27.35247805 -15.79052734 26.09936523 C-14.76080475 24.20735265 -13.74091513 22.31031157 -12.72265625 20.41210938 C-3.74600966 3.74600966 -3.74600966 3.74600966 0 0 Z " fill="#F4F6F7" transform="translate(694,298)"/>
<path d="M0 0 C5.875 0.875 5.875 0.875 7 2 C7.34041609 6.43170588 6.777366 9.1515099 4.62109375 13.01171875 C4.11489502 13.92993408 3.60869629 14.84814941 3.0871582 15.79418945 C2.542771 16.74898193 1.99838379 17.70377441 1.4375 18.6875 C0.8911792 19.66614014 0.3448584 20.64478027 -0.21801758 21.65307617 C-9.936766 38.936766 -9.936766 38.936766 -13 42 C-15.4375 42.1875 -15.4375 42.1875 -18 42 C-20 40 -20 40 -20.01171875 37.1171875 C-18.97815803 31.28398203 -15.66672197 26.2292426 -12.8125 21.125 C-12.24724609 20.08730469 -11.68199219 19.04960937 -11.09960938 17.98046875 C-7.68489042 11.77686707 -4.04388126 5.81325183 0 0 Z " fill="#F5F7F8" transform="translate(573,342)"/>
<path d="M0 0 C0.88945313 0.00966797 1.77890625 0.01933594 2.6953125 0.02929688 C3.61570312 0.05443359 4.53609375 0.07957031 5.484375 0.10546875 C6.42023437 0.11900391 7.35609375 0.13253906 8.3203125 0.14648438 C10.62558827 0.18176921 12.9296856 0.23106594 15.234375 0.29296875 C15.5785387 6.67146926 15.5785387 6.67146926 14.02734375 9.47265625 C13.49753906 10.03210938 12.96773437 10.5915625 12.421875 11.16796875 C11.89980469 11.74289062 11.37773438 12.3178125 10.83984375 12.91015625 C7.17130558 16.06991906 2.50647728 15.68762912 -2.0859375 15.6328125 C-4.765625 15.29296875 -4.765625 15.29296875 -8.015625 13.23046875 C-9.765625 10.29296875 -9.765625 10.29296875 -9.828125 6.66796875 C-8.16052422 1.37088392 -5.42852644 -0.10439474 0 0 Z " fill="#F7F8F8" transform="translate(614.765625,929.70703125)"/>
<path d="M0 0 C0.85078125 0.00322266 1.7015625 0.00644531 2.578125 0.00976562 C3.46757812 0.01814453 4.35703125 0.02652344 5.2734375 0.03515625 C6.170625 0.03966797 7.0678125 0.04417969 7.9921875 0.04882812 C10.21100398 0.06063034 12.42968768 0.0770947 14.6484375 0.09765625 C14.9375 7.73828125 14.9375 7.73828125 12.3359375 10.97265625 C8.14249406 14.28840223 6.03592918 15.39040968 0.7109375 15.41015625 C-0.84947266 15.43529297 -0.84947266 15.43529297 -2.44140625 15.4609375 C-5.70943036 15.05298281 -7.04718153 14.418077 -9.3515625 12.09765625 C-10.3515625 8.66015625 -10.3515625 8.66015625 -10.3515625 5.09765625 C-7.30432289 1.10472159 -4.89025993 -0.03260173 0 0 Z " fill="#F5F6F7" transform="translate(419.3515625,929.90234375)"/>
<path d="M0 0 C2.5 0.25 2.5 0.25 4.5 2.25 C4.65857859 9.54461505 0.38846847 15.33198447 -3.5 21.25 C-4.16 21.91 -4.82 22.57 -5.5 23.25 C-10.05555556 22.69444444 -10.05555556 22.69444444 -11.5 21.25 C-12.03825064 16.05203668 -10.66103372 12.99240258 -8.125 8.5 C-7.49851562 7.37078125 -6.87203125 6.2415625 -6.2265625 5.078125 C-3.32965578 0.33296558 -3.32965578 0.33296558 0 0 Z " fill="#F3F6F7" transform="translate(660.5,363.75)"/>
<path d="M0 0 C2.72628931 0.23265926 5.41321971 0.52582428 8.125 0.875 C8.87265625 0.96652344 9.6203125 1.05804688 10.390625 1.15234375 C14.93523405 1.7144818 19.46879832 2.33894936 24 3 C23.67 4.32 23.34 5.64 23 7 C13.1 7.33 3.2 7.66 -7 8 C-1 1 -1 1 0 0 Z " fill="#F2F5F7" transform="translate(451,367)"/>
<path d="M0 0 C18.48 0 36.96 0 56 0 C55.67 0.99 55.34 1.98 55 3 C27.775 3.495 27.775 3.495 0 4 C0 2.68 0 1.36 0 0 Z " fill="#D3DCE2" transform="translate(423,816)"/>
<path d="M0 0 C2.10388569 -0.05402274 4.20816714 -0.09280256 6.3125 -0.125 C8.07013672 -0.15980469 8.07013672 -0.15980469 9.86328125 -0.1953125 C13 0 13 0 16 2 C15.01 2.495 15.01 2.495 14 3 C14 4.32 14 5.64 14 7 C10.9020403 8.54897985 7.73783448 7.83239539 4.375 7.5625 C3.66859375 7.51029297 2.9621875 7.45808594 2.234375 7.40429688 C0.48920013 7.27458793 -1.25545725 7.13795046 -3 7 C-3 6.67 -3 6.34 -3 6 C-1.35 5.67 0.3 5.34 2 5 C1.34 3.35 0.68 1.7 0 0 Z " fill="#0E4C78" transform="translate(651,514)"/>
<path d="M0 0 C13.86 0 27.72 0 42 0 C41.34 1.32 40.68 2.64 40 4 C39.505 3.01 39.505 3.01 39 2 C26.46 2 13.92 2 1 2 C0.67 1.34 0.34 0.68 0 0 Z " fill="#F8BF27" transform="translate(613,278)"/>
<path d="M0 0 C1.5 1.25 1.5 1.25 3 3 C3 4.32 3 5.64 3 7 C-3.6 7 -10.2 7 -17 7 C-14 4 -14 4 -10.86328125 3.70703125 C-9.69152344 3.74183594 -8.51976562 3.77664063 -7.3125 3.8125 C-5.54326172 3.85310547 -5.54326172 3.85310547 -3.73828125 3.89453125 C-2.83464844 3.92933594 -1.93101562 3.96414063 -1 4 C-0.67 2.68 -0.34 1.36 0 0 Z " fill="#E5ECEF" transform="translate(431,909)"/>
<path d="M0 0 C0.33 0.99 0.66 1.98 1 3 C0.5560791 3.41362793 0.1121582 3.82725586 -0.34521484 4.25341797 C-2.35549152 6.12690534 -4.36525143 8.00094614 -6.375 9.875 C-7.07367188 10.52597656 -7.77234375 11.17695313 -8.4921875 11.84765625 C-9.1625 12.47285156 -9.8328125 13.09804688 -10.5234375 13.7421875 C-11.14138184 14.3182373 -11.75932617 14.89428711 -12.39599609 15.48779297 C-13.61654142 16.63848669 -14.81386617 17.81386617 -16 19 C-15.42118732 15.45177554 -14.17307641 13.81577197 -11.62109375 11.328125 C-10.94755859 10.66425781 -10.27402344 10.00039063 -9.58007812 9.31640625 C-8.87302734 8.63449219 -8.16597656 7.95257813 -7.4375 7.25 C-6.72658203 6.55261719 -6.01566406 5.85523438 -5.28320312 5.13671875 C-3.52869286 3.4175342 -1.76756648 1.70574128 0 0 Z " fill="#043B6C" transform="translate(428,278)"/>
<path d="M0 0 C2.0625 0.4375 2.0625 0.4375 4 1 C3.01 1.66 2.02 2.32 1 3 C0.48815355 6.00414569 0.48815355 6.00414569 0.48828125 9.5390625 C0.45283203 10.84101562 0.41738281 12.14296875 0.38085938 13.484375 C0.35775769 14.86457809 0.33497536 16.24478657 0.3125 17.625 C0.27933555 19.01305352 0.2448467 20.40107607 0.20898438 21.7890625 C0.12625885 25.19262707 0.05718743 28.5959259 0 32 C-0.33 32 -0.66 32 -1 32 C-1.02465504 27.60343827 -1.04283842 23.2069128 -1.05493164 18.81030273 C-1.05997121 17.31355082 -1.06680287 15.81680384 -1.07543945 14.32006836 C-1.08752159 12.17300193 -1.09323191 10.02600038 -1.09765625 7.87890625 C-1.10289307 6.5854126 -1.10812988 5.29191895 -1.11352539 3.95922852 C-1 1 -1 1 0 0 Z " fill="#10517B" transform="translate(519,585)"/>
<path d="M0 0 C0.33 0.99 0.66 1.98 1 3 C-0.29296875 5.19140625 -0.29296875 5.19140625 -2.1875 7.5625 C-3.10595703 8.74005859 -3.10595703 8.74005859 -4.04296875 9.94140625 C-5.95378468 11.95138629 -7.45721979 12.95695269 -10 14 C-6.84577733 9.17403931 -3.71080883 4.42442592 0 0 Z " fill="#56CBE6" transform="translate(348,448)"/>
<path d="M0 0 C0.66 0.33 1.32 0.66 2 1 C2.96070434 3.88211302 3.10581883 5.69850044 3.0625 8.6875 C3.05347656 9.49574219 3.04445313 10.30398438 3.03515625 11.13671875 C3.02355469 11.75160156 3.01195312 12.36648438 3 13 C2.01 12.34 1.02 11.68 0 11 C-0.125 8.125 -0.125 8.125 0 5 C-0.32483418 3.66457061 -0.6550855 2.33038449 -1 1 C-0.67 0.67 -0.34 0.34 0 0 Z " fill="#D4E0E5" transform="translate(554,915)"/>
<path d="M0 0 C4.49797113 1.68673918 8.72886302 3.81673892 13 6 C13 6.66 13 7.32 13 8 C8.77096401 6.69101267 4.83550432 5.22994437 1 3 C0.67 2.01 0.34 1.02 0 0 Z " fill="#E7EDEF" transform="translate(255,831)"/>
<path d="M0 0 C1.32 0 2.64 0 4 0 C4 0.66 4 1.32 4 2 C6.64 2 9.28 2 12 2 C12.33 2.99 12.66 3.98 13 5 C7.76119922 4.44854729 3.02649303 3.57077907 -2 2 C-1.34 1.34 -0.68 0.68 0 0 Z " fill="#EBF1F3" transform="translate(314,755)"/>
<path d="M0 0 C-1.33333333 1.33333333 -2.66666667 2.66666667 -4 4 C-2.35 3.67 -0.7 3.34 1 3 C-0.125 4.5 -0.125 4.5 -2 6 C-5.1875 6.1875 -5.1875 6.1875 -8 6 C-6.53781513 1.3697479 -6.53781513 1.3697479 -4 -0.375 C-2 -1 -2 -1 0 0 Z " fill="#0F4D78" transform="translate(638,520)"/>
<path d="M0 0 C0.99 0 1.98 0 3 0 C3 1.32 3 2.64 3 4 C-3.27 4 -9.54 4 -16 4 C-16 3.67 -16 3.34 -16 3 C-14.92878906 2.95101562 -13.85757813 2.90203125 -12.75390625 2.8515625 C-11.35674361 2.77654706 -9.9596095 2.7009987 -8.5625 2.625 C-7.85544922 2.5940625 -7.14839844 2.563125 -6.41992188 2.53125 C-4.60760812 2.42719371 -2.80182012 2.22080108 -1 2 C-0.67 1.34 -0.34 0.68 0 0 Z " fill="#D3DEE3" transform="translate(627,912)"/>
<path d="M0 0 C0.66 0.33 1.32 0.66 2 1 C4.21081851 1.10540926 4.21081851 1.10540926 7 0 C7.33 1.32 7.66 2.64 8 4 C5.23735711 4.59732819 2.83967231 5 0 5 C-0.33 4.34 -0.66 3.68 -1 3 C-0.67 2.01 -0.34 1.02 0 0 Z " fill="#EEF2F4" transform="translate(447,750)"/>
<path d="M0 0 C2.64 0 5.28 0 8 0 C6.25 2 6.25 2 4 4 C2.68 4 1.36 4 0 4 C0 2.68 0 1.36 0 0 Z " fill="#55C8E4" transform="translate(644,581)"/>
<path d="M0 0 C5.28776943 0.33048559 9.24100622 3.48352195 13 7 C13 7.66 13 8.32 13 9 C12.01 8.67 11.02 8.34 10 8 C10 7.34 10 6.68 10 6 C9.46375 5.731875 8.9275 5.46375 8.375 5.1875 C5.58333333 3.79166667 2.79166667 2.39583333 0 1 C0 0.67 0 0.34 0 0 Z " fill="#E3EAEE" transform="translate(633,889)"/>
<path d="M0 0 C0.66 0.33 1.32 0.66 2 1 C1.67 1.66 1.34 2.32 1 3 C1.66 3.33 2.32 3.66 3 4 C0.03 6.475 0.03 6.475 -3 9 C-3 5.30581799 -1.71820705 3.22163822 0 0 Z " fill="#0F507B" transform="translate(706,524)"/>
<path d="M0 0 C0.33 0.99 0.66 1.98 1 3 C-0.62339805 4.70884005 -2.29319053 6.37446717 -4 8 C-4.66 8 -5.32 8 -6 8 C-4.55746343 4.63408134 -2.66735273 2.48952921 0 0 Z " fill="#0A4473" transform="translate(428,278)"/>
<path d="M0 0 C4.455 0.99 4.455 0.99 9 2 C6 4 6 4 2.8125 3.625 C1.884375 3.41875 0.95625 3.2125 0 3 C0 2.01 0 1.02 0 0 Z " fill="#174568" transform="translate(306,786)"/>
<path d="M0 0 C-0.66 1.32 -1.32 2.64 -2 4 C-2.66 4 -3.32 4 -4 4 C-4 3.34 -4 2.68 -4 2 C-6.64 2 -9.28 2 -12 2 C-12 1.67 -12 1.34 -12 1 C-10.37512529 0.83211627 -8.75009558 0.66573213 -7.125 0.5 C-6.22007812 0.4071875 -5.31515625 0.314375 -4.3828125 0.21875 C-2 0 -2 0 0 0 Z " fill="#1E668E" transform="translate(691,546)"/>
<path d="M0 0 C0.99 0 1.98 0 3 0 C2.67 1.65 2.34 3.3 2 5 C1.01 5.33 0.02 5.66 -1 6 C-0.67 4.02 -0.34 2.04 0 0 Z " fill="#E5ECEF" transform="translate(284,368)"/>
<path d="M0 0 C0.66 0.99 1.32 1.98 2 3 C1.125 5.6875 1.125 5.6875 0 8 C-0.98120464 4.94736336 -0.98120464 3.05263664 0 0 Z M-2 8 C-1.67 8.99 -1.34 9.98 -1 11 C-1.66 11.66 -2.32 12.32 -3 13 C-2.67 11.35 -2.34 9.7 -2 8 Z " fill="#EEBF3D" transform="translate(598,308)"/>
<path d="M0 0 C-1.65 0.33 -3.3 0.66 -5 1 C-5 1.66 -5 2.32 -5 3 C-6.98 3.99 -6.98 3.99 -9 5 C-9.33 4.01 -9.66 3.02 -10 2 C-3.375 -1.125 -3.375 -1.125 0 0 Z " fill="#092C53" transform="translate(469,82)"/>
<path d="M0 0 C0.99 0.33 1.98 0.66 3 1 C-0.01887244 4.48331435 -2.56909529 5.79157144 -7 7 C-7 6.34 -7 5.68 -7 5 C-4.69 4.34 -2.38 3.68 0 3 C0 2.01 0 1.02 0 0 Z " fill="#0A2E55" transform="translate(430,953)"/>
<path d="M0 0 C4.455 0.99 4.455 0.99 9 2 C9 2.99 9 3.98 9 5 C5.9168649 3.80100302 2.93720508 2.52299523 0 1 C0 0.67 0 0.34 0 0 Z " fill="#ECF0F3" transform="translate(488,680)"/>
<path d="M0 0 C0.33 0.66 0.66 1.32 1 2 C-2.375 2.625 -2.375 2.625 -6 3 C-6.66 2.34 -7.32 1.68 -8 1 C-5.29120665 -0.35439668 -2.99066732 -0.06501451 0 0 Z " fill="#0E355A" transform="translate(349,117)"/>
<path d="M0 0 C3.87132028 0.57352893 6.08172796 2.48704352 9 5 C5.65626525 4.44271087 2.96687001 3.64826111 0 2 C0 1.34 0 0.68 0 0 Z " fill="#0C4977" transform="translate(697,200)"/>
<path d="M0 0 C0.99 0 1.98 0 3 0 C2.67 1.98 2.34 3.96 2 6 C1.67 5.34 1.34 4.68 1 4 C0.34 4 -0.32 4 -1 4 C-0.67 2.68 -0.34 1.36 0 0 Z " fill="#E5ECEF" transform="translate(569,195)"/>
</svg>
